<svg id="Layer_1" enable-background="new 0 0 512 512" height="512" viewBox="0 0 512 512" width="512" xmlns="http://www.w3.org/2000/svg"><g><path d="m326.298 278.621c-53.179-49.071-55.257-88.697-55.299-89.767-.093-8.205-6.772-14.828-14.999-14.828-8.284 0-15 6.716-15 15 0 .386-1.504 39.958-55.298 89.595-32.128 29.646-48.418 60.928-48.418 92.978 0 65.46 53.256 118.716 118.716 118.716s118.716-53.256 118.716-118.716c0-32.049-16.29-63.332-48.418-92.978zm-70.298 181.695c-48.918 0-88.716-39.798-88.716-88.716 0-23.661 12.68-46.862 38.763-70.93 25.1-23.161 40.503-44.953 49.953-63.03 9.45 18.077 24.854 39.869 49.953 63.03 26.083 24.068 38.763 47.27 38.763 70.93 0 48.918-39.798 88.716-88.716 88.716z"/><path d="m192.796 179.97c0-26.092-13.134-51.44-39.038-75.343-21.487-19.827-31.871-37.392-36.798-48.635-5.099-11.635-5.54-19.037-5.563-19.529-.118-8.182-6.788-14.779-14.999-14.779-8.284 0-15 6.716-15 15 0 .289-1.152 29.919-42.359 67.943-25.905 23.903-39.039 49.252-39.039 75.343 0 53.154 43.244 96.398 96.398 96.398s96.398-43.244 96.398-96.398zm-96.398 66.398c-36.612 0-66.398-29.786-66.398-66.398 0-17.618 9.611-35.051 29.383-53.295 17.644-16.281 29.306-31.632 37.015-44.907 7.709 13.274 19.372 28.626 37.016 44.907 19.771 18.244 29.382 35.677 29.382 53.295 0 36.612-29.786 66.398-66.398 66.398z"/><path d="m472.962 104.628c-21.487-19.827-31.871-37.392-36.798-48.635-5.099-11.635-5.54-19.037-5.563-19.529-.118-8.182-6.788-14.779-14.999-14.779-8.284 0-15 6.716-15 15 0 .289-1.152 29.919-42.359 67.943-25.904 23.902-39.039 49.251-39.039 75.343 0 53.154 43.244 96.398 96.398 96.398s96.398-43.245 96.398-96.399c0-26.091-13.134-51.44-39.038-75.342zm-57.36 141.74c-36.612 0-66.398-29.786-66.398-66.398 0-17.618 9.611-35.051 29.383-53.295 17.644-16.281 29.306-31.632 37.015-44.907 7.709 13.274 19.372 28.626 37.016 44.907 19.771 18.244 29.382 35.677 29.382 53.295 0 36.612-29.786 66.398-66.398 66.398z"/></g></svg>