<svg id="Layer_1" enable-background="new 0 0 512.009 512.009" height="512" viewBox="0 0 512.009 512.009" width="512" xmlns="http://www.w3.org/2000/svg"><g><path d="m369.86 313.208h-71.96v-10.854c36.396-16.318 60.162-52.459 60.162-93.099v-64.107h3.273c9.443 0 18.305-3.693 24.952-10.399 6.599-6.658 10.188-15.47 10.106-24.795-.002-.269-.006-.539-.013-.83-.33-13.775-6.13-26.709-16.331-36.419-7.956-7.574-18.098-12.534-28.777-14.222v-20.853c0-8.284-6.716-15-15-15s-15 6.716-15 15v19.694c-13.788-1.669-26.119-7.168-41.927-23.335-26.376-26.976-57.019-37.724-93.663-32.851-21.979 2.92-42.018 12.245-56.426 26.254-15.938 15.498-24.214 36.102-23.302 58.008l.03.666c1.399 28.167 21.456 51.146 47.963 57.399v65.792c0 40.639 23.766 76.781 60.162 93.099v10.854h-71.96c-45.604 0-82.705 37.101-82.705 82.705v101.097c0 8.284 6.716 15 15 15h363.119c8.284 0 15-6.716 15-15v-101.1c.001-45.603-37.1-82.704-82.703-82.704zm-113.855 65.465c20.915 0 38.3-15.406 41.402-35.466h57.453v54.401h-197.71v-54.401h57.453c3.102 20.061 20.486 35.466 41.402 35.466zm-98.855 48.936h197.71v54.401h-197.71zm-21.202-343.027-.02-.42c-.919-22.104 15.495-48.208 53.707-53.286 4.439-.59 8.709-.888 12.838-.888 21.322 0 38.798 7.973 55.422 24.974 30.961 31.665 55.627 33.619 84.661 32.886 6.122-.142 12.249 2.246 16.808 6.585 4.392 4.18 6.886 9.653 7.023 15.388l.006.377c.015 1.642-.761 2.771-1.414 3.43-.562.567-1.783 1.519-3.646 1.519h-192.84c-17.398.001-31.694-13.427-32.545-30.565zm48 124.674v-64.107h144.114v64.107c0 31.341-20.01 58.891-49.792 68.556-6.183 2.006-10.37 7.767-10.37 14.268v44.7c0 6.559-5.336 11.895-11.895 11.895s-11.895-5.336-11.895-11.895v-44.7c0-6.5-4.187-12.261-10.37-14.268-29.783-9.665-49.792-37.216-49.792-68.556zm-94.503 186.656c0-23.852 15.927-44.055 37.705-50.531v136.628h-37.705zm333.119 86.097h-37.704v-136.627c21.778 6.476 37.705 26.678 37.705 50.531v86.096z"/><path d="m299.321 212.354c0-8.284-6.716-15-15-15s-15 6.716-15 15c0 7.343-5.974 13.316-13.316 13.316s-13.316-5.974-13.316-13.316c0-8.284-6.716-15-15-15s-15 6.716-15 15c0 23.885 19.432 43.316 43.316 43.316s43.316-19.432 43.316-43.316z"/></g></svg>