<svg id="Layer_1" enable-background="new 0 0 512 512" height="512" viewBox="0 0 512 512" width="512" xmlns="http://www.w3.org/2000/svg"><g><path d="m283.874 197.349c-8.284 0-15 6.716-15 15 0 7.343-5.974 13.317-13.316 13.317s-13.317-5.974-13.317-13.317c0-8.284-6.716-15-15-15s-15 6.716-15 15c0 23.884 19.432 43.316 43.317 43.316s43.316-19.432 43.316-43.316c0-8.284-6.716-15-15-15z"/><path d="m482.514 373.839c-51.315-12.995-83.581-67.322-79.742-128.996 1.05.551 2.109 1.081 3.177 1.59 2.083.993 4.279 1.462 6.442 1.462 5.604 0 10.98-3.155 13.552-8.551 3.563-7.478.391-16.43-7.088-19.993-6.153-2.932-11.857-6.91-17.007-11.739-.175-.174-.354-.344-.538-.51-15.848-15.156-26.335-38.435-28.343-64.079 4.789-1.749 9.174-4.547 12.874-8.278 6.6-6.658 10.188-15.47 10.106-24.757-.002-.268-.007-.537-.013-.867-.33-13.775-6.13-26.709-16.331-36.419-7.955-7.573-18.099-12.526-28.777-14.217v-20.857c0-8.284-6.716-15-15-15s-15 6.716-15 15v19.692c-13.787-1.669-26.121-7.167-41.927-23.333-26.377-26.975-57.018-37.722-93.663-32.85-21.979 2.92-42.019 12.244-56.427 26.254-15.938 15.497-24.214 36.101-23.301 58.047l.029.624c1.135 22.853 14.552 42.29 33.731 52.15-1.221 27.135-11.945 51.978-28.568 67.882-.19.171-.376.347-.556.527-5.148 4.825-10.848 8.8-16.997 11.73-7.479 3.563-10.652 12.515-7.088 19.993 2.571 5.396 7.947 8.551 13.551 8.551 2.163 0 4.36-.47 6.442-1.462 1.068-.509 2.127-1.039 3.177-1.59 3.839 61.674-28.427 116-79.742 128.996-8.031 2.034-12.892 10.193-10.858 18.223 1.721 6.795 7.827 11.321 14.53 11.321 1.219 0 2.458-.149 3.693-.462 7.685-1.946 15.092-4.598 22.168-7.91-.014.63-.022 1.261-.022 1.894v101.095c0 8.284 6.716 15 15 15h363.12c8.284 0 15-6.716 15-15v-101.096c0-.436-.004-.872-.011-1.307 7.339 3.505 15.04 6.297 23.042 8.323 1.236.313 2.475.462 3.693.462 6.703 0 12.81-4.526 14.53-11.321 2.034-8.029-2.828-16.188-10.858-18.222zm-128.102 23.762h-197.71v-54.4h57.453c3.102 20.059 20.487 35.465 41.402 35.465s38.299-15.406 41.402-35.465h57.453zm-76.59-119.795c-6.183 2.006-10.37 7.767-10.37 14.267v44.699c0 6.558-5.336 11.894-11.895 11.894s-11.895-5.336-11.895-11.894v-44.699c0-6.5-4.187-12.261-10.37-14.267-29.782-9.664-49.792-37.214-49.792-68.554v-64.107h144.114v64.107c0 31.34-20.01 58.889-49.792 68.554zm-64.159 24.542v10.853h-71.96c-4.258 0-8.442.324-12.528.947 10.32-28.341 13.037-60.157 7.733-91.972 5.673-6.274 10.762-13.361 15.166-21.165.486-.861.962-1.728 1.428-2.602v10.841c-.002 40.64 23.764 76.781 60.161 93.098zm-56.961 125.252h197.71v54.4h-197.71zm212.71-114.399h-71.96v-10.853c36.396-16.318 60.162-52.459 60.162-93.097v-11.53c.745 1.447 1.516 2.878 2.313 4.291 4.404 7.803 9.492 14.89 15.165 21.163-5.247 31.474-2.645 62.949 7.403 91.059-4.261-.679-8.632-1.033-13.083-1.033zm-233.932-229.041c-.919-22.104 15.495-48.207 53.707-53.285 4.439-.59 8.71-.888 12.838-.888 21.322 0 38.798 7.972 55.421 24.974 30.961 31.664 55.636 33.621 84.662 32.885 6.16-.161 12.251 2.246 16.809 6.585 4.392 4.18 6.886 9.653 7.022 15.353l.007.413c.014 1.642-.761 2.771-1.414 3.43-.563.567-1.783 1.519-3.646 1.519h-192.84c-17.399 0-31.695-13.428-32.548-30.606zm-46.483 311.744c0-23.852 15.927-44.054 37.705-50.53v136.626h-37.705zm333.12 86.097h-37.705v-136.626c21.778 6.476 37.705 26.678 37.705 50.53z"/></g></svg>