<svg id="Layer_1" enable-background="new 0 0 512 512" height="512" viewBox="0 0 512 512" width="512" xmlns="http://www.w3.org/2000/svg"><g><path d="m408.814 256c0-4.451-1.977-8.672-5.396-11.522l-61.824-51.537 61.824-51.537c3.419-2.85 5.396-7.071 5.396-11.521s-1.977-8.672-5.396-11.521l-137.813-114.884c-5.563-4.638-13.646-4.638-19.209 0l-137.814 114.884c-3.419 2.85-5.396 7.071-5.396 11.521s1.977 8.672 5.396 11.521l61.824 51.537-61.824 51.537c-3.419 2.85-5.396 7.071-5.396 11.522s1.977 8.672 5.396 11.522l61.824 51.537-61.824 51.537c-3.419 2.85-5.396 7.071-5.396 11.522s1.977 8.672 5.396 11.522l137.813 114.882c2.781 2.319 6.193 3.479 9.604 3.479s6.823-1.159 9.604-3.479l137.813-114.882c3.419-2.85 5.396-7.071 5.396-11.522s-1.977-8.672-5.396-11.522l-61.824-51.537 61.824-51.537c3.421-2.85 5.398-7.071 5.398-11.522zm-152.814-221.471 114.388 95.354-114.388 95.355-114.388-95.354zm114.388 347.588-114.388 95.355-114.388-95.354 52.22-43.53 52.563 43.817c2.781 2.319 6.193 3.479 9.604 3.479s6.823-1.159 9.604-3.479l52.563-43.817zm-114.388-30.762-114.388-95.355 52.22-43.53 52.564 43.818c2.781 2.319 6.193 3.478 9.604 3.478s6.823-1.159 9.604-3.478l52.564-43.818 52.22 43.53z"/></g></svg>