<svg id="Layer_1" enable-background="new 0 0 512 512" height="512" viewBox="0 0 512 512" width="512" xmlns="http://www.w3.org/2000/svg"><g><path d="m471.95 19.789h-431.9c-22.084 0-40.05 17.966-40.05 40.049v312.323c0 22.083 17.966 40.049 40.05 40.049h151.197v50h-35c-8.284 0-15 6.716-15 15s6.716 15 15 15h199.506c8.284 0 15-6.716 15-15s-6.716-15-15-15h-35v-50h151.197c22.084 0 40.05-17.966 40.05-40.049v-312.323c0-22.083-17.966-40.049-40.05-40.049zm-431.9 30h431.9c5.542 0 10.05 4.508 10.05 10.049v265.373h-452v-265.373c0-5.541 4.508-10.049 10.05-10.049zm250.703 412.422h-69.506v-50h69.506zm181.197-80h-431.9c-5.542 0-10.05-4.508-10.05-10.049v-16.951h452v16.951c0 5.541-4.508 10.049-10.05 10.049z"/><path d="m256 184.46c30.51 0 55.332-24.822 55.332-55.332s-24.822-55.332-55.332-55.332-55.332 24.822-55.332 55.332 24.822 55.332 55.332 55.332zm0-80.664c13.968 0 25.332 11.364 25.332 25.332s-11.364 25.332-25.332 25.332-25.332-11.364-25.332-25.332 11.364-25.332 25.332-25.332z"/><path d="m187.749 301.15c30.51 0 55.332-24.822 55.332-55.332s-24.822-55.332-55.332-55.332-55.332 24.822-55.332 55.332 24.822 55.332 55.332 55.332zm0-80.664c13.968 0 25.332 11.364 25.332 25.332s-11.364 25.332-25.332 25.332-25.332-11.364-25.332-25.332 11.364-25.332 25.332-25.332z"/><path d="m268.919 245.818c0 30.51 24.822 55.332 55.332 55.332s55.332-24.822 55.332-55.332-24.822-55.332-55.332-55.332-55.332 24.822-55.332 55.332zm55.332-25.332c13.968 0 25.332 11.364 25.332 25.332s-11.364 25.332-25.332 25.332-25.332-11.364-25.332-25.332 11.364-25.332 25.332-25.332z"/></g></svg>