<svg id="Layer_1" enable-background="new 0 0 512 512" height="512" viewBox="0 0 512 512" width="512" xmlns="http://www.w3.org/2000/svg"><g><path d="m370.021 0h-228.042c-29.212 0-52.979 23.767-52.979 52.979v406.041c0 29.213 23.767 52.98 52.979 52.98h228.041c29.213 0 52.98-23.767 52.98-52.979v-406.042c0-29.212-23.767-52.979-52.979-52.979zm-54.896 30-3.851 9.173c-2.159 5.143-7.159 8.466-12.737 8.466h-85.075c-5.578 0-10.578-3.323-12.737-8.466l-3.85-9.173zm77.875 429.021c0 12.67-10.309 22.979-22.979 22.979h-228.042c-12.67 0-22.979-10.309-22.979-22.979v-406.042c0-12.67 10.309-22.979 22.979-22.979h22.359l8.726 20.786c6.849 16.313 22.706 26.854 40.398 26.854h85.075c17.692 0 33.549-10.541 40.398-26.854l8.727-20.786h22.359c12.67 0 22.979 10.309 22.979 22.979z"/><path d="m287.691 430.64h-63.382c-8.284 0-15 6.716-15 15s6.716 15 15 15h63.382c8.284 0 15-6.716 15-15s-6.716-15-15-15z"/><path d="m256 111.213c-36.694 0-66.547 29.853-66.547 66.547 0 14.259 4.508 27.485 12.174 38.328-7.844 11.133-12.174 24.527-12.174 38.356 0 14.259 4.508 27.485 12.174 38.328-7.845 11.133-12.174 24.527-12.174 38.356 0 36.694 29.853 66.547 66.547 66.547s66.547-29.853 66.547-66.547c0-13.829-4.33-27.223-12.174-38.356 7.666-10.843 12.174-24.069 12.174-38.328 0-13.829-4.33-27.223-12.174-38.356 7.666-10.843 12.174-24.069 12.174-38.328 0-36.694-29.853-66.547-66.547-66.547zm36.547 143.23c0 20.152-16.395 36.547-36.547 36.547s-36.547-16.395-36.547-36.547c0-6.435 1.708-12.698 4.851-18.181 9.429 5.129 20.228 8.045 31.696 8.045s22.267-2.916 31.696-8.045c3.143 5.483 4.851 11.747 4.851 18.181zm-36.547-113.23c20.152 0 36.547 16.395 36.547 36.547s-16.395 36.547-36.547 36.547-36.547-16.395-36.547-36.547 16.395-36.547 36.547-36.547zm0 226.461c-20.152 0-36.547-16.395-36.547-36.547 0-6.435 1.708-12.698 4.851-18.182 9.429 5.129 20.228 8.045 31.696 8.045s22.267-2.916 31.696-8.045c3.143 5.483 4.851 11.747 4.851 18.182 0 20.152-16.395 36.547-36.547 36.547z"/></g></svg>