<svg id="Layer_1" enable-background="new 0 0 512 512" height="512" viewBox="0 0 512 512" width="512" xmlns="http://www.w3.org/2000/svg"><g><path d="m437.02 74.98c-48.353-48.351-112.64-74.98-181.02-74.98s-132.667 26.629-181.02 74.98c-48.351 48.353-74.98 112.64-74.98 181.02s26.629 132.667 74.98 181.02c48.353 48.351 112.64 74.98 181.02 74.98s132.667-26.629 181.02-74.98c48.351-48.353 74.98-112.64 74.98-181.02s-26.629-132.667-74.98-181.02zm44.493 166.02h-85.28c-2.937-27.657-13.902-52.953-30.514-73.506l60.349-60.349c32.89 37.469 52.207 84.104 55.445 133.855zm-314.019 124.719c20.553 16.612 45.849 27.577 73.506 30.514v85.28c-49.751-3.238-96.386-22.556-133.855-55.445zm103.506 30.514c27.657-2.937 52.953-13.902 73.506-30.514l60.349 60.349c-37.469 32.889-84.105 52.207-133.855 55.445zm-15-29.207c-61.22 0-111.026-49.806-111.026-111.026s49.806-111.026 111.026-111.026 111.026 49.806 111.026 111.026-49.806 111.026-111.026 111.026zm88.506-220.745c-20.553-16.612-45.849-27.577-73.506-30.514v-85.28c49.751 3.238 96.386 22.556 133.855 55.445zm-103.506-30.514c-27.657 2.937-52.953 13.902-73.506 30.514l-60.349-60.349c37.469-32.89 84.104-52.207 133.855-55.445zm-155.068-8.622 60.349 60.349c-16.612 20.553-27.577 45.849-30.514 73.506h-85.28c3.238-49.751 22.555-96.386 55.445-133.855zm-55.445 163.855h85.28c2.937 27.657 13.902 52.953 30.514 73.506l-60.349 60.349c-32.89-37.469-52.207-84.104-55.445-133.855zm395.581 133.855-60.349-60.349c16.612-20.553 27.577-45.849 30.514-73.506h85.28c-3.238 49.751-22.555 96.386-55.445 133.855z"/><path d="m291.045 225.499c-18.443-17.018-19.953-29.891-20.051-31.027-.226-8.087-6.853-14.573-14.994-14.573s-14.769 6.486-14.994 14.573c-.099 1.137-1.608 14.009-20.051 31.027-15.168 13.997-22.86 29.113-22.86 44.927 0 31.929 25.976 57.906 57.905 57.906s57.906-25.977 57.906-57.906c0-15.815-7.692-30.93-22.861-44.927zm-20.045-30.601c0-.132-.002-.264-.005-.396.014.261.005.396.005.396zm-29.995-.395c-.003.131-.005.263-.005.396 0-.001-.009-.136.005-.396zm14.995 103.828c-15.387 0-27.905-12.519-27.905-27.906 0-7.096 4.443-14.794 13.205-22.879 5.668-5.23 10.577-10.613 14.701-16.113 4.124 5.5 9.033 10.883 14.701 16.113 8.762 8.085 13.205 15.783 13.205 22.879-.001 15.388-12.52 27.906-27.907 27.906z"/></g></svg>