<svg id="Layer_1" enable-background="new 0 0 512 512" height="512" viewBox="0 0 512 512" width="512" xmlns="http://www.w3.org/2000/svg"><g><path d="m497 207.886h-36.962v-110.819c0-3.979-1.58-7.793-4.394-10.606l-82.067-82.067c-2.812-2.813-6.628-4.394-10.606-4.394h-258.915c-28.725 0-52.094 23.369-52.094 52.094v155.792h-36.962c-8.284 0-15 6.716-15 15v188.228c0 8.284 6.716 15 15 15h36.962v33.792c0 28.725 23.369 52.094 52.094 52.094h303.889c28.725 0 52.094-23.369 52.094-52.094v-33.792h36.961c8.284 0 15-6.716 15-15v-188.228c0-8.284-6.716-15-15-15zm-119.029-156.673 30.854 30.854h-30.854zm-296.009.881c0-12.183 9.911-22.094 22.094-22.094h243.915v67.067c0 8.284 6.716 15 15 15h67.067v95.819h-348.076zm348.076 407.812c0 12.183-9.911 22.094-22.094 22.094h-303.888c-12.183 0-22.094-9.911-22.094-22.094v-33.792h348.076zm51.962-63.792h-452v-158.228h452z"/><path d="m329.537 344.726c-8.284 0-15 6.716-15 15s6.716 15 15 15h49.157c8.284 0 15-6.716 15-15v-42.726c0-8.284-6.716-15-15-15h-34.157v-12.726h34.157c8.284 0 15-6.716 15-15s-6.716-15-15-15h-49.157c-8.284 0-15 6.716-15 15v42.726c0 8.284 6.716 15 15 15h34.157v12.726z"/><path d="m230.306 374.726c8.284 0 15-6.716 15-15v-21.294h34.157c8.284 0 15-6.716 15-15v-49.157c0-8.284-6.716-15-15-15h-49.157c-8.284 0-15 6.716-15 15v85.451c0 8.284 6.715 15 15 15zm15-85.452h19.157v19.157h-19.157z"/><path d="m133.306 374.726h46.778c8.284 0 15-6.716 15-15s-6.716-15-15-15h-31.778v-12.726h31.778c8.284 0 15-6.716 15-15s-6.716-15-15-15h-31.778v-12.726h31.778c8.284 0 15-6.716 15-15s-6.716-15-15-15h-46.778c-8.284 0-15 6.716-15 15v85.451c0 8.285 6.715 15.001 15 15.001z"/></g></svg>