<svg id="Layer_1" enable-background="new 0 0 512 512" height="512" viewBox="0 0 512 512" width="512" xmlns="http://www.w3.org/2000/svg"><g><path d="m497 105.925c8.284 0 15-6.716 15-15v-75.925c0-8.284-6.716-15-15-15h-75.925c-8.284 0-15 6.716-15 15v22.962h-300.15v-22.962c0-8.284-6.716-15-15-15h-75.925c-8.284 0-15 6.716-15 15v75.925c0 8.284 6.716 15 15 15h22.962v300.15h-22.962c-8.284 0-15 6.716-15 15v75.925c0 8.284 6.716 15 15 15h75.925c8.284 0 15-6.716 15-15v-22.962h300.15v22.962c0 8.284 6.716 15 15 15h75.925c8.284 0 15-6.716 15-15v-75.925c0-8.284-6.716-15-15-15h-22.962v-300.15zm-60.925-75.925h45.925v45.925h-45.925zm-406.075 0h45.925v45.925h-45.925zm45.925 452h-45.925v-45.925h45.925zm406.075 0h-45.925v-45.925h45.925zm-37.962-75.925h-22.962c-8.284 0-15 6.716-15 15v22.962h-300.15v-22.962c0-8.284-6.716-15-15-15h-22.964v-300.15h22.962c8.284 0 15-6.716 15-15v-22.963h300.15v22.962c0 8.284 6.716 15 15 15h22.962v300.151z"/><path d="m363.498 137.162h-214.996c-8.284 0-15 6.716-15 15v54.544c0 8.284 6.716 15 15 15s15-6.716 15-15v-39.544h77.498v179.676h-27.951c-8.284 0-15 6.716-15 15s6.716 15 15 15h85.901c8.284 0 15-6.716 15-15s-6.716-15-15-15h-27.95v-179.676h77.498v39.544c0 8.284 6.716 15 15 15s15-6.716 15-15v-54.544c0-8.284-6.716-15-15-15z"/></g></svg>