<svg id="Layer_1" enable-background="new 0 0 511.363 511.363" height="512" viewBox="0 0 511.363 511.363" width="512" xmlns="http://www.w3.org/2000/svg"><g><g><g><path d="m490.6 346.762c0-13.596-6.07-25.799-15.645-34.043 5.143-7.305 8.165-16.205 8.165-25.797 0-23.777-18.573-43.287-41.972-44.813l2.727-11.232c4.882-20.103.348-40.96-12.439-57.223-3.045-3.873-6.464-7.34-10.17-10.394 15.903-12.582 26.136-32.031 26.136-53.837 0-18.68-9.209-36.649-27.372-53.409-24.603-22.702-26.188-40.07-26.271-41.348-.177-8.13-6.824-14.666-14.997-14.666s-14.819 6.536-14.996 14.667c-.084 1.277-1.669 18.646-26.271 41.348-18.163 16.759-27.372 34.729-27.372 53.409 0 21.806 10.233 41.255 26.136 53.837-3.706 3.054-7.125 6.521-10.17 10.394-12.787 16.263-17.321 37.12-12.439 57.223l2.701 11.125h-41.98l3.511-16.412c7.546-35.27 2.633-75.045.946-86.395-2.086-14.05-9.067-28.823-19.153-40.53-11.793-13.687-26.138-21.225-40.392-21.225h-1.788c-11.873 0-39.489 5.835-39.489 59.88 0 55.454-12.921 81.175-23.76 92.988-9.74 10.616-19.255 11.597-20.782 11.687-.125-.011.029.006-.299.006h-97.403c-8.284 0-15 6.716-15 15v239.362c0 8.284 6.716 15 15 15h365.038c24.77 0 44.921-20.151 44.921-44.92 0-6.721-1.484-13.104-4.143-18.835 15.654-7.027 26.582-22.764 26.582-41.005 0-6.721-1.484-13.104-4.142-18.835 15.654-7.03 26.582-22.766 26.582-41.007zm-96.838-331.762c0-.104-.001-.207-.003-.31.009.205.003.31.003.31zm-29.997-.31c-.002.103-.003.207-.003.31 0 0-.005-.105.003-.31zm-5.926 63.372c9.07-8.369 15.854-16.441 20.924-23.856 5.07 7.415 11.854 15.487 20.924 23.856 11.755 10.847 17.716 21.398 17.716 31.361 0 21.306-17.334 38.64-38.64 38.64s-38.64-17.334-38.64-38.64c0-9.963 5.961-20.514 17.716-31.361zm56.884 145.737-4.419 18.202h-63.084l-4.419-18.203c-2.695-11.103-.191-22.621 6.87-31.603 7.063-8.981 17.665-14.133 29.091-14.133s22.028 5.151 29.091 14.133c7.062 8.982 9.566 20.501 6.87 31.604zm-322.612 257.564h-41.349v-209.362h41.349zm353.569-119.681h-103.855c-8.284 0-15 6.716-15 15s6.716 15 15 15h81.415c8.227 0 14.92 6.693 14.92 14.92s-6.693 14.92-14.92 14.92h-22.44-38.975c-8.284 0-15 6.716-15 15s6.716 15 15 15h38.975c8.228 0 14.921 6.693 14.921 14.92s-6.693 14.92-14.921 14.92h-278.689v-209.361h10.964c3.522.042 22.072-.674 40.112-18.159 23.104-22.393 34.817-61.597 34.817-116.522 0-10.92 1.427-19.921 4.019-25.344 2.168-4.536 3.923-4.536 5.471-4.536h1.788c11.679 0 27.312 18.925 29.871 36.161 1.498 10.09 5.883 45.371-.608 75.713l-7.391 34.55c-.947 4.429.157 9.048 3.005 12.57s7.134 5.568 11.663 5.568h182.378c8.228 0 14.921 6.693 14.921 14.92s-6.693 14.92-14.921 14.92h-96.375c-8.284 0-15 6.716-15 15s6.716 15 15 15h103.855c8.227 0 14.92 6.693 14.92 14.92s-6.693 14.92-14.92 14.92z"/></g></g></g></svg>