<svg id="Layer_1" enable-background="new 0 0 512 512" height="512" viewBox="0 0 512 512" width="512" xmlns="http://www.w3.org/2000/svg"><g><path d="m481.482 30.493c-40.624-40.625-106.725-40.625-147.349 0-25.201 25.201-35.727 61.788-28.013 96.43l-10.173 33.209-182.013 148.678c-13.903 11.322-22.401 28.085-23.314 45.992-.125 2.456-.106 4.905.052 7.335-2.93-.377-5.902-.569-8.905-.569-18.334 0-35.571 7.14-48.536 20.104-13.209 13.21-19.403 32.428-18.411 57.121 1.344 33.454-9.819 46.855-10.66 47.814-5.623 5.875-5.546 15.196.233 20.975 2.929 2.929 6.768 4.393 10.606 4.393 3.735 0 7.472-1.387 10.368-4.16.961-.842 14.367-12.005 47.813-10.66 24.685.998 43.912-5.202 57.121-18.411 15.627-15.627 22.129-36.975 19.507-57.364 1.405.094 2.815.142 4.23.142 1.048 0 2.099-.026 3.149-.079 17.881-.893 34.637-9.352 45.984-23.223l148.675-182.194 33.205-10.172c7.485 1.667 15.059 2.482 22.591 2.482 27.326-.001 54.083-10.739 73.839-30.495 19.681-19.678 30.519-45.843 30.519-73.674s-10.838-53.995-30.518-73.674zm-477.306 456.099c.139-.152.218-.223.218-.223-.075.074-.147.148-.218.223zm21.209 21.208c.074-.072.148-.144.222-.218-.001 0-.071.079-.222.218zm83.705-50.269c-7.045 7.044-18.721 10.292-34.703 9.648-12.333-.495-22.834.415-31.664 2.073 1.658-8.829 2.569-19.333 2.074-31.664-.643-15.983 2.604-27.659 9.647-34.703 7.299-7.298 17.002-11.318 27.323-11.318 10.316 0 20.014 4.016 27.311 11.306l.045.045c15.032 15.07 15.021 39.559-.033 54.613zm70.85-78.292c-6.066 7.417-14.678 11.764-24.247 12.242-9.587.479-18.573-2.991-25.349-9.766-6.785-6.786-10.253-15.801-9.764-25.384.489-9.584 4.856-18.199 12.314-24.273l26.406-21.57 42.258 42.258zm40.684-49.855-37.971-37.971 125.289-102.343 14.968 14.968zm239.645-172.755c-18.698 18.698-46.2 26.05-71.775 19.188-2.72-.729-5.59-.68-8.281.145l-32.88 10.072-.047-.047 50.352-50.351h32.526c8.284 0 15-6.716 15-15s-6.716-15-15-15h-23.739v-23.74c0-8.284-6.716-15-15-15s-15 6.716-15 15v32.527l-50.352 50.352-.132-.132 10.072-32.88c.825-2.692.875-5.562.146-8.281-6.862-25.575.489-53.078 19.188-71.775 28.928-28.927 75.995-28.927 104.923 0 14.012 14.012 21.73 32.643 21.73 52.46s-7.718 38.449-21.731 52.462z"/><path d="m254.601 116.635c8.284 0 15-6.716 15-15v-38.74c0-8.284-6.716-15-15-15s-15 6.716-15 15v38.74c0 8.284 6.716 15 15 15z"/><path d="m191.013 148.516c2.664 5.161 7.907 8.122 13.341 8.122 2.316 0 4.668-.539 6.868-1.674 7.361-3.8 10.248-12.849 6.447-20.209l-20-38.74c-3.8-7.361-12.847-10.248-20.209-6.448-7.361 3.8-10.248 12.849-6.447 20.209z"/><path d="m440.164 246.567h-38.739c-8.284 0-15 6.716-15 15s6.716 15 15 15h38.739c8.284 0 15-6.716 15-15s-6.716-15-15-15z"/><path d="m407.045 318.499-38.739-20c-7.361-3.802-16.409-.913-20.209 6.447-3.801 7.361-.914 16.41 6.447 20.21l38.739 20c2.2 1.136 4.552 1.674 6.868 1.674 5.434 0 10.677-2.961 13.341-8.122 3.801-7.36.914-16.409-6.447-20.209z"/></g></svg>