<svg id="Layer_1" enable-background="new 0 0 512 512" height="512" viewBox="0 0 512 512" width="512" xmlns="http://www.w3.org/2000/svg"><g><path d="m478.901 13.083c-17.452-17.445-45.848-17.444-63.3 0l-12.276 12.271c-16.725-7.966-37.388-5.037-51.215 8.786l-46.368 46.351c-5.858 5.856-5.858 15.349 0 21.205l10.607 10.603-13.896 13.891h-242.393c-22.083 0-40.049 17.959-40.049 40.034v241.4c0 22.075 17.966 40.035 40.049 40.035h113.82v34.352h-25.228c-8.284 0-15 6.713-15 14.994s6.716 14.994 15 14.994h160.513c8.284 0 15-6.713 15-14.994s-6.716-14.994-15-14.994h-25.228v-34.351h113.82c22.083 0 40.049-17.96 40.049-40.035v-247.775l20.03-20.022c13.829-13.823 16.758-34.478 8.789-51.196l12.276-12.271c17.451-17.446 17.451-45.832 0-63.278zm-222.555 201.607h41.368l-58.239 58.217c-12.813 12.808-28.649 21.558-46.125 25.56 3.994-17.467 12.936-33.737 25.628-46.424zm71.368-29.989h-41.368l51.215-51.196 20.684 20.676zm-267.654-28.522h212.393l-74.687 74.659c-18.972 18.965-31.567 44.024-35.463 70.56-1.136 7.734 1.494 15.644 7.036 21.16 4.667 4.645 11.025 7.219 17.52 7.219 1.216 0 2.438-.09 3.653-.274l.129-.019c26.719-4.039 50.941-16.27 70.049-35.37l118.77-118.727 10.796 10.792c2.929 2.928 6.768 4.392 10.606 4.392 2.388 0 4.776-.567 6.944-1.699v175.958h-357.795v-198.605c0-5.539 4.508-10.046 10.049-10.046zm193.877 325.832h-50.057v-34.351h50.057zm143.82-64.34h-337.697c-5.541 0-10.049-4.507-10.049-10.046v-12.805h357.795v12.805c0 5.539-4.508 10.046-10.049 10.046zm59.931-362.516-21.065 21.057c-5.858 5.856-5.858 15.349 0 21.205 5.848 5.846 5.848 15.359 0 21.206l-35.761 35.748-63.3-63.276 35.761-35.748c5.849-5.846 15.365-5.845 21.213 0 5.857 5.856 15.355 5.856 21.213 0l21.065-21.057c5.755-5.753 15.119-5.753 20.874 0s5.754 15.112 0 20.865z"/></g></svg>