<svg id="Layer_1" enable-background="new 0 0 512 512" height="512" viewBox="0 0 512 512" width="512" xmlns="http://www.w3.org/2000/svg"><g><path d="m461.343 34.543h-28.343v-19.543c0-8.284-6.716-15-15-15s-15 6.716-15 15v19.543h-34.701v-19.543c0-8.284-6.716-15-15-15s-15 6.716-15 15v19.543h-34.7v-19.543c0-8.284-6.716-15-15-15s-15 6.716-15 15v19.543h-35.198v-19.543c0-8.284-6.716-15-15-15s-15 6.716-15 15v19.543h-34.7v-19.543c0-8.284-6.716-15-15-15s-15 6.716-15 15v19.543h-34.701v-19.543c0-8.284-6.716-15-15-15s-15 6.716-15 15v19.543h-28.343c-27.932 0-50.657 22.725-50.657 50.657v376.144c0 27.931 22.725 50.656 50.657 50.656h410.687c27.931 0 50.656-22.725 50.656-50.657v-376.143c0-27.932-22.725-50.657-50.657-50.657zm-410.686 30h28.343v13.542c0 8.284 6.716 15 15 15s15-6.716 15-15v-13.542h34.701v13.542c0 8.284 6.716 15 15 15s15-6.716 15-15v-13.542h34.7v13.542c0 8.284 6.716 15 15 15s15-6.716 15-15v-13.542h35.198v13.542c0 8.284 6.716 15 15 15s15-6.716 15-15v-13.542h34.7v13.542c0 8.284 6.716 15 15 15s15-6.716 15-15v-13.542h34.701v13.542c0 8.284 6.716 15 15 15s15-6.716 15-15v-13.542h28.343c11.39 0 20.657 9.267 20.657 20.657v27.343h-452v-27.343c0-11.39 9.267-20.657 20.657-20.657zm410.686 417.457h-410.686c-11.39 0-20.657-9.267-20.657-20.657v-318.8h452v318.8c0 11.39-9.267 20.657-20.657 20.657z"/><path d="m364.78 334.301c-3.215-41.85-22.882-68.323-38.689-89.601-13.722-18.472-23.637-31.818-23.637-51.335 0-7.606-4.201-14.5-10.953-17.986-6.818-3.528-14.899-2.933-21.105 1.549-25.844 18.508-47.425 49.754-54.992 79.629-1.224 4.847-2.192 9.81-2.959 14.76-1.562-5.069-5.085-9.402-9.819-11.932-.042-.022-.083-.044-.125-.066-5.717-2.986-12.552-3.083-18.297-.262-3.957 1.937-35.614 19.333-37.439 80.326-.116 2.045-.125 3.936-.125 6.008 0 60.302 49.059 109.361 109.361 109.361s109.361-49.059 109.361-109.361c0-3.183-.212-6.052-.399-8.584zm-126.773 72.459c0-4.389 7.195-16.771 17.95-30.147 1.477 1.829 3.014 3.789 4.55 5.832 13.332 17.731 13.486 24.251 13.486 24.315 0 9.921-8.071 17.993-17.993 17.993s-17.993-8.071-17.993-17.993zm65.94 1.818c.023-.604.046-1.208.046-1.818 0-11.188-6.198-24.643-19.507-42.343-8.665-11.525-17.244-20.594-17.604-20.974-2.833-2.985-6.767-4.675-10.881-4.675s-8.049 1.69-10.881 4.675c-.361.38-8.939 9.449-17.604 20.974-13.309 17.701-19.507 31.156-19.507 42.343 0 .61.023 1.214.046 1.818-19.072-14.508-31.415-37.429-31.415-63.186 0-1.719.006-3.137.085-4.443.01-.159.017-.318.021-.477.657-22.91 6.207-36.719 11.416-44.712.484 1.24 1.013 2.506 1.592 3.787 8.992 19.904 22.186 26.498 31.67 28.523 4.411.942 9.014-.151 12.531-2.977 3.517-2.827 5.574-7.086 5.603-11.597.083-13.232.686-32.77 4.932-49.583 4.51-17.806 15.941-36.869 30.183-51.26 4.6 19.33 15.724 34.305 27.342 49.944 14.898 20.054 30.304 40.791 32.85 73.942l.179 2.462c0 .005.001.011.001.017.163 2.21.317 4.298.317 6.374-.001 25.757-12.343 48.678-31.415 63.186z"/></g></svg>