<svg id="Layer_1" enable-background="new 0 0 512.042 512.042" height="512" viewBox="0 0 512.042 512.042" width="512" xmlns="http://www.w3.org/2000/svg"><g><path d="m490.091 11.951c-14.819-14.821-38.238-16-54.472-2.739l-143.272 117.033h-242.297c-22.083 0-40.049 17.961-40.049 40.038v241.384c0 22.077 17.966 40.038 40.049 40.038h113.82v34.336h-25.228c-8.284 0-15 6.716-15 15s6.716 15 15 15h160.513c8.284 0 15-6.716 15-15s-6.716-15-15-15h-25.228v-34.336h113.82c22.084 0 40.05-17.961 40.05-40.038v-261.55l65.046-79.711c13.246-16.231 12.063-39.642-2.752-54.455zm-207.408 174.331c.461-9.039 4.58-17.165 11.616-22.895l24.957-20.387 39.847 39.847-20.434 25.041c-5.722 6.995-13.844 11.096-22.869 11.546-9.035.456-17.518-2.82-23.908-9.21-6.4-6.4-9.671-14.903-9.209-23.942zm-12.045 96.782c-6.647 6.647-17.718 9.707-32.902 9.098-11.508-.463-21.364.346-29.715 1.851 1.504-8.35 2.313-18.212 1.851-29.715-.61-15.185 2.451-26.254 9.098-32.901 6.9-6.9 16.075-10.701 25.834-10.701s18.933 3.8 25.833 10.701c14.245 14.245 14.245 37.422.001 51.667zm-26.711 198.978h-50.057v-34.336h50.057zm153.87-74.375c0 5.535-4.508 10.038-10.05 10.038h-337.697c-5.541 0-10.049-4.503-10.049-10.038v-12.798h357.796zm0-42.798h-357.796v-198.586c0-5.535 4.508-10.038 10.049-10.038h211.378c-5.133 8.569-8.187 18.344-8.706 28.508-.11 2.15-.104 4.295.011 6.426-2.613-.308-5.257-.484-7.928-.484-17.772 0-34.481 6.921-47.047 19.488-12.812 12.811-18.82 31.423-17.86 55.319 1.278 31.806-9.267 44.573-10.089 45.517-5.613 5.875-5.532 15.188.243 20.964 2.929 2.929 6.768 4.394 10.607 4.394 3.73 0 7.461-1.383 10.356-4.149.939-.818 13.709-11.366 45.518-10.09 23.903.962 42.508-5.048 55.32-17.86 14.969-14.97 21.281-35.355 18.975-54.907 1.134.063 2.271.103 3.412.103 1.017 0 2.037-.025 3.057-.076 17.345-.866 33.599-9.072 44.606-22.528l35.896-43.988v181.987zm-206.533-32.885s-.074.083-.232.228c.078-.075.155-.151.232-.228zm-21.213-21.214c-.077.077-.152.154-.227.231.145-.157.227-.231.227-.231zm299.548-263.33-91.433 112.046-35.56-35.559 111.991-91.481c1.979-1.617 4.366-2.415 6.745-2.415 2.734 0 5.457 1.055 7.535 3.133 3.885 3.884 4.195 10.021.722 14.276z"/></g></svg>