<svg id="Layer_1" enable-background="new 0 0 512 512" height="512" viewBox="0 0 512 512" width="512" xmlns="http://www.w3.org/2000/svg"><g><path d="m461.343 0h-410.686c-27.932 0-50.657 22.725-50.657 50.657v410.687c0 27.931 22.725 50.656 50.657 50.656h410.686c27.932 0 50.657-22.725 50.657-50.657v-410.686c0-27.932-22.725-50.657-50.657-50.657zm-410.686 30h410.686c11.39 0 20.657 9.267 20.657 20.657v59.343h-452v-59.343c0-11.39 9.267-20.657 20.657-20.657zm410.686 452h-410.686c-11.39 0-20.657-9.267-20.657-20.657v-321.343h452v321.343c0 11.39-9.267 20.657-20.657 20.657z"/><path d="m71.264 85.435h28.964c8.284 0 15-6.716 15-15s-6.716-15-15-15h-28.964c-8.284 0-15 6.716-15 15s6.715 15 15 15z"/><path d="m149.896 85.435h28.964c8.284 0 15-6.716 15-15s-6.716-15-15-15h-28.964c-8.284 0-15 6.716-15 15s6.716 15 15 15z"/><path d="m228.896 85.435h28.964c8.284 0 15-6.716 15-15s-6.716-15-15-15h-28.964c-8.284 0-15 6.716-15 15s6.716 15 15 15z"/><path d="m256 168.056c-79.9 0-144.904 65.003-144.904 144.904s65.004 144.904 144.904 144.904 144.904-65.004 144.904-144.904-65.004-144.904-144.904-144.904zm113.929 129.903h-36.641c-1.642-31.299-8.406-60.471-19.457-83.375-.201-.416-.403-.829-.606-1.24 30.329 17.492 51.966 48.432 56.704 84.615zm-128.929-93.065v93.065h-32.238c2.625-44.188 16.575-78.952 32.238-93.065zm0 123.065v93.066c-15.663-14.113-29.613-48.877-32.238-93.066zm30 93.066v-93.066h32.238c-2.625 44.189-16.575 78.953-32.238 93.066zm0-123.066v-93.065c15.663 14.113 29.613 48.877 32.238 93.065zm-72.225-84.614c-.203.411-.405.824-.606 1.24-11.051 22.903-17.815 52.076-19.457 83.375h-36.641c4.738-36.184 26.375-67.124 56.704-84.615zm-56.704 114.614h36.641c1.642 31.299 8.406 60.471 19.457 83.375.201.416.403.829.606 1.24-30.329-17.49-51.966-48.431-56.704-84.615zm171.154 84.615c.203-.411.405-.824.606-1.24 11.051-22.903 17.815-52.076 19.457-83.375h36.641c-4.738 36.184-26.375 67.125-56.704 84.615z"/></g></svg>