<svg id="Layer_1" enable-background="new 0 0 512 512" height="512" viewBox="0 0 512 512" width="512" xmlns="http://www.w3.org/2000/svg"><g><path d="m507.824 245.615c-1.151-1.2-28.705-29.717-73.284-58.457-59.491-38.353-121.23-58.626-178.54-58.626s-119.049 20.273-178.54 58.627c-44.579 28.74-72.133 57.256-73.284 58.457-5.567 5.803-5.567 14.965 0 20.769 1.151 1.2 28.705 29.717 73.284 58.457 59.491 38.354 121.229 58.627 178.54 58.627s119.049-20.273 178.54-58.627c44.579-28.74 72.133-57.256 73.284-58.457 5.567-5.804 5.567-14.966 0-20.77zm-154.356 10.385c0 53.744-43.724 97.468-97.468 97.468s-97.468-43.724-97.468-97.468 43.724-97.468 97.468-97.468 97.468 43.723 97.468 97.468zm-316.724.006c19.059-17.243 61.628-52.156 116.369-75.176-15.449 21.089-24.581 47.083-24.581 75.169 0 28.068 9.119 54.047 24.551 75.128-22.603-9.475-42.566-20.709-58.735-31.094-26.017-16.709-46.091-33.592-57.604-44.027zm322.143 75.163c15.449-21.089 24.581-47.083 24.581-75.169 0-28.068-9.119-54.047-24.551-75.128 22.603 9.475 42.566 20.709 58.735 31.094 26.017 16.709 46.089 33.591 57.604 44.028-19.06 17.243-61.629 52.155-116.369 75.175z"/><path d="m256 312.922c31.387 0 56.922-25.535 56.922-56.922s-25.536-56.922-56.922-56.922-56.922 25.535-56.922 56.922 25.535 56.922 56.922 56.922zm0-83.844c14.845 0 26.922 12.077 26.922 26.922s-12.078 26.922-26.922 26.922-26.922-12.078-26.922-26.922 12.077-26.922 26.922-26.922z"/><path d="m418.805 121.463c3.839 0 7.678-1.464 10.606-4.394l27.393-27.393c5.858-5.858 5.858-15.355 0-21.213-5.857-5.857-15.355-5.858-21.213 0l-27.393 27.393c-5.858 5.858-5.858 15.355 0 21.213 2.93 2.93 6.769 4.394 10.607 4.394z"/><path d="m350.422 113.499c1.517.483 3.053.713 4.563.713 6.353 0 12.252-4.069 14.286-10.445l13.252-41.535c2.519-7.893-1.839-16.332-9.73-18.85-7.894-2.517-16.331 1.839-18.85 9.731l-13.252 41.536c-2.518 7.892 1.839 16.332 9.731 18.85z"/><path d="m82.589 117.72c2.929 2.929 6.768 4.394 10.606 4.394s7.678-1.464 10.606-4.394c5.858-5.858 5.858-15.355 0-21.213l-27.393-27.394c-5.857-5.858-15.355-5.858-21.213 0s-5.858 15.355 0 21.213z"/><path d="m142.728 104.417c2.034 6.376 7.933 10.445 14.286 10.445 1.511 0 3.047-.23 4.563-.713 7.893-2.518 12.25-10.957 9.731-18.85l-13.251-41.535c-2.518-7.893-10.955-12.25-18.85-9.731-7.892 2.518-12.249 10.957-9.73 18.85z"/><path d="m429.412 394.93c-5.857-5.857-15.355-5.858-21.213 0-5.858 5.857-5.858 15.355 0 21.213l27.393 27.393c2.929 2.929 6.768 4.394 10.606 4.394s7.678-1.465 10.606-4.393c5.858-5.858 5.858-15.355 0-21.213z"/><path d="m369.271 408.232c-2.519-7.893-10.955-12.249-18.85-9.731-7.892 2.518-12.249 10.958-9.73 18.85l13.252 41.536c2.034 6.376 7.933 10.444 14.286 10.444 1.511 0 3.047-.23 4.563-.713 7.892-2.518 12.249-10.958 9.73-18.85z"/><path d="m82.589 394.279-27.394 27.394c-5.858 5.858-5.858 15.355 0 21.213 2.929 2.929 6.768 4.394 10.606 4.394s7.678-1.464 10.606-4.394l27.394-27.394c5.858-5.858 5.858-15.355 0-21.213-5.857-5.858-15.355-5.858-21.212 0z"/><path d="m161.577 397.851c-7.889-2.515-16.331 1.839-18.849 9.731l-13.251 41.535c-2.519 7.893 1.839 16.332 9.73 18.85 1.517.483 3.053.713 4.563.713 6.353 0 12.252-4.069 14.286-10.445l13.251-41.535c2.52-7.892-1.838-16.331-9.73-18.849z"/></g></svg>