<svg id="Layer_1" enable-background="new 0 0 512 512" height="512" viewBox="0 0 512 512" width="512" xmlns="http://www.w3.org/2000/svg"><g><path d="m471.951 19.789h-431.902c-22.083 0-40.049 17.966-40.049 40.049v312.323c0 22.083 17.966 40.049 40.049 40.049h151.198v50h-35c-8.284 0-15 6.716-15 15s6.716 15 15 15h199.505c8.284 0 15-6.716 15-15s-6.716-15-15-15h-35v-50h151.198c22.083 0 40.049-17.966 40.049-40.049v-312.323c.001-22.083-17.965-40.049-40.048-40.049zm-431.902 30h431.901c5.541 0 10.049 4.508 10.049 10.049v265.373h-451.999v-265.373c0-5.541 4.508-10.049 10.049-10.049zm250.703 412.422h-69.505v-50h69.505zm181.199-80h-431.902c-5.541 0-10.049-4.508-10.049-10.049v-16.951h452v16.951c0 5.541-4.508 10.049-10.049 10.049z"/><path d="m243.177 292.783c2.72 4.481 7.582 7.218 12.823 7.218s10.104-2.736 12.823-7.218l89.565-147.581c2.811-4.631 2.906-10.418.249-15.14-2.658-4.721-7.654-7.643-13.072-7.643-16.489 0-29.904-13.415-29.904-29.904 0-8.284-6.716-15-15-15h-89.321c-8.284 0-15 6.716-15 15 0 16.489-13.415 29.904-29.904 29.904-5.417 0-10.414 2.921-13.072 7.643-2.657 4.721-2.563 10.508.249 15.14zm-18.739-185.267h63.124c4.659 18.009 17.508 32.757 34.316 40.022l-50.878 83.835v-56.978h5.601c8.284 0 15-6.716 15-15s-6.716-15-15-15h-41.202c-8.284 0-15 6.716-15 15s6.716 15 15 15h5.601v56.978l-50.878-83.835c16.808-7.265 29.657-22.014 34.316-40.022z"/></g></svg>