<svg id="Layer_1" enable-background="new 0 0 512 512" height="512" viewBox="0 0 512 512" width="512" xmlns="http://www.w3.org/2000/svg"><g><path d="m483.759 186.238h-14.393c-3.582-10.991-8.015-21.69-13.257-31.997l10.095-10.097c5.257-5.257 8.271-12.538 8.271-19.994-.011-7.539-2.95-14.625-8.281-19.957l-58.56-58.518c-5.332-5.333-12.421-8.269-19.964-8.269h-.006c-7.543.001-14.634 2.94-19.969 8.276l-10.068 10.071c-10.309-5.246-21.009-9.681-31.996-13.262v-14.25c.002-15.572-12.667-28.241-28.238-28.241h-82.79c-15.572 0-28.241 12.669-28.241 28.242v14.254c-10.983 3.579-21.683 8.014-31.992 13.259l-10.073-10.073c-11.007-11.008-28.921-11.014-39.934-.009l-58.551 58.52c-5.345 5.334-8.288 12.43-8.288 19.979 0 7.436 3.015 14.716 8.272 19.974l10.094 10.096c-5.246 10.31-9.682 21.013-13.262 31.997h-14.341c-15.572 0-28.241 12.667-28.241 28.228l-.046 82.782c-.011 7.444 3.002 14.733 8.267 19.996 5.334 5.336 12.428 8.274 19.974 8.274h14.387c3.581 10.988 8.017 21.691 13.263 32.001l-10.193 10.194c-11.01 11.011-11.01 28.927-.004 39.933l58.522 58.569c5.338 5.337 12.43 8.277 19.972 8.277s14.634-2.938 19.97-8.275l10.208-10.212c10.31 5.246 21.011 9.681 31.995 13.263v14.489c0 15.572 12.669 28.242 28.241 28.242h82.79c15.572 0 28.241-12.669 28.241-28.242v-14.488c10.988-3.582 21.688-8.017 31.997-13.263l10.213 10.213c5.334 5.335 12.428 8.273 19.973 8.273 7.44 0 14.722-3.021 19.973-8.282l58.519-58.565c11.001-11.013 10.999-28.926-.005-39.932l-10.193-10.194c5.246-10.311 9.682-21.014 13.263-32.001h14.387c15.572 0 28.241-12.669 28.241-28.242v-82.797c-.001-15.572-12.67-28.242-28.242-28.242zm-1.759 109.281h-23.812c-6.783 0-12.722 4.552-14.484 11.102-4.336 16.111-10.766 31.624-19.109 46.109-3.386 5.878-2.405 13.296 2.391 18.093l16.859 16.861-56.034 56.079-16.877-16.878c-4.796-4.798-12.217-5.779-18.095-2.391-14.482 8.343-29.994 14.773-46.104 19.11-6.55 1.763-11.101 7.702-11.101 14.484v23.912h-79.271v-23.913c0-6.782-4.551-12.721-11.1-14.484-16.106-4.337-31.62-10.767-46.108-19.112-5.88-3.386-13.3-2.404-18.095 2.394l-16.871 16.877-56.034-56.079 16.859-16.861c4.796-4.796 5.777-12.215 2.391-18.093-8.343-14.485-14.772-29.999-19.109-46.109-1.763-6.55-7.702-11.102-14.484-11.102h-23.811l.044-79.281h23.766c6.783 0 12.722-4.552 14.484-11.102 4.334-16.105 10.764-31.617 19.109-46.104 3.386-5.877 2.405-13.296-2.391-18.093l-16.76-16.762 56.071-56.042 16.741 16.742c4.797 4.798 12.216 5.779 18.095 2.391 14.485-8.345 29.994-14.773 46.097-19.104 6.551-1.762 11.104-7.702 11.104-14.485v-23.678h79.271v23.675c0 6.783 4.551 12.721 11.101 14.484 16.11 4.337 31.622 10.767 46.104 19.11 5.879 3.388 13.3 2.405 18.097-2.392l16.735-16.741 56.079 56.039-16.763 16.764c-4.796 4.797-5.776 12.215-2.391 18.093 8.337 14.473 14.764 29.985 19.104 46.105 1.763 6.55 7.702 11.101 14.484 11.101h23.818z"/><path d="m256 103.376c-84.157 0-152.624 68.467-152.624 152.624s68.467 152.624 152.624 152.624 152.624-68.467 152.624-152.624-68.467-152.624-152.624-152.624zm-30.945 271.293-.538-5.31c-.9-8.993 1.944-17.636 8.008-24.336 6.064-6.701 14.38-10.392 23.418-10.392 9.051 0 17.375 3.7 23.441 10.417s8.898 15.376 7.975 24.402l-.529 5.249c-9.854 2.561-20.186 3.925-30.83 3.925-10.686 0-21.056-1.375-30.945-3.955zm30.945-158.592c4.84 6.967 11.242 14.513 19.703 22.321 11.168 10.306 16.832 20.297 16.832 29.698 0 20.146-16.389 36.535-36.535 36.535s-36.535-16.389-36.535-36.535c0-9.4 5.663-19.392 16.831-29.698 8.464-7.809 14.863-15.352 19.704-22.321zm-14.997-39.022c-.002.107-.003.216-.003.324 0 0-.006-.11.003-.324zm29.994 0c.009.214.003.324.003.324 0-.108-.001-.217-.003-.324zm46.388 185.069c-.92-13.704-6.412-26.855-15.735-37.18-1.447-1.602-2.971-3.12-4.563-4.549 15.487-12.193 25.448-31.104 25.448-52.299 0-18.118-8.912-35.528-26.487-51.746-23.395-21.586-24.966-38.07-25.052-39.32-.185-8.123-6.828-14.651-14.996-14.651s-14.811 6.528-14.996 14.651c-.086 1.25-1.657 17.733-25.052 39.32-17.575 16.218-26.487 33.627-26.487 51.746 0 21.167 9.935 40.056 25.387 52.251-1.596 1.428-3.122 2.945-4.571 4.546-9.331 10.312-14.839 23.457-15.775 37.168-36.525-21.259-61.129-60.84-61.129-106.061 0-67.615 55.009-122.624 122.624-122.624s122.623 55.009 122.623 122.624c0 45.265-24.654 84.88-61.239 106.124z"/></g></svg>