<svg id="Layer_1" enable-background="new 0 0 512 512" height="512" viewBox="0 0 512 512" width="512" xmlns="http://www.w3.org/2000/svg"><g><path d="m461.343 0h-410.686c-27.932 0-50.657 22.725-50.657 50.657v410.687c0 27.931 22.725 50.656 50.657 50.656h410.686c27.932 0 50.657-22.725 50.657-50.657v-410.686c0-27.932-22.725-50.657-50.657-50.657zm20.657 413.873-100.24-100.24c-2.813-2.813-6.628-4.394-10.606-4.394s-7.794 1.581-10.606 4.394l-53.091 53.091-121.7-121.699c-5.857-5.858-15.355-5.858-21.213 0l-134.544 134.544v-239.569h452zm-431.343-383.873h410.686c11.39 0 20.657 9.267 20.657 20.657v59.343h-452v-59.343c0-11.39 9.267-20.657 20.657-20.657zm410.686 452h-410.686c-11.39 0-20.657-9.267-20.657-20.657v-39.349l145.15-145.149 121.7 121.699c2.813 2.813 6.628 4.394 10.606 4.394s7.794-1.581 10.606-4.394l53.091-53.091 110.847 110.845v5.045c0 11.39-9.267 20.657-20.657 20.657z"/><path d="m71.264 85.435h28.964c8.284 0 15-6.716 15-15s-6.716-15-15-15h-28.964c-8.284 0-15 6.716-15 15s6.715 15 15 15z"/><path d="m149.896 85.435h28.964c8.284 0 15-6.716 15-15s-6.716-15-15-15h-28.964c-8.284 0-15 6.716-15 15s6.716 15 15 15z"/><path d="m228.896 85.435h28.964c8.284 0 15-6.716 15-15s-6.716-15-15-15h-28.964c-8.284 0-15 6.716-15 15s6.716 15 15 15z"/><path d="m371.002 276.072c28.162 0 51.074-22.912 51.074-51.075s-22.912-51.074-51.074-51.074-51.074 22.912-51.074 51.074 22.912 51.075 51.074 51.075zm0-72.149c11.62 0 21.074 9.454 21.074 21.074s-9.454 21.075-21.074 21.075-21.074-9.454-21.074-21.075 9.454-21.074 21.074-21.074z"/></g></svg>