<svg id="Layer_1" enable-background="new 0 0 512.002 512.002" height="512" viewBox="0 0 512.002 512.002" width="512" xmlns="http://www.w3.org/2000/svg"><g><path d="m252.074 39.806c-91.192 0-165.383 74.19-165.383 165.382 0 29.581 7.908 58.613 22.869 83.959 13.768 23.322 33.141 43.001 56.202 57.139l30.603 57.632v52.376c0 30.718 24.991 55.708 55.709 55.708s55.709-24.991 55.709-55.708v-52.376l30.603-57.632c23.062-14.137 42.435-33.815 56.202-57.138 14.961-25.345 22.869-54.378 22.869-83.959 0-91.193-74.191-165.383-165.383-165.383zm25.709 416.487c0 14.176-11.533 25.708-25.709 25.708s-25.709-11.533-25.709-25.708v-41.111h51.418zm41.828-133.743c-2.438 1.407-4.433 3.472-5.753 5.958l-30.094 56.673h-16.59v-134.614l41.793-41.793c5.858-5.858 5.858-15.355 0-21.213-5.857-5.858-15.355-5.858-21.213 0l-35.58 35.58-35.58-35.58c-5.857-5.858-15.355-5.858-21.213 0s-5.858 15.355 0 21.213l41.793 41.793v134.615h-16.791l-30.094-56.673c-1.32-2.487-3.314-4.552-5.753-5.958-41.849-24.141-67.846-69.112-67.846-117.362 0-74.65 60.732-135.382 135.383-135.382s135.383 60.732 135.383 135.382c.001 48.25-25.997 93.22-67.845 117.361z"/><path d="m75.298 55.562c2.89 4.341 7.649 6.689 12.5 6.689 2.855 0 5.743-.814 8.298-2.515 6.896-4.59 8.766-13.902 4.175-20.798l-21.467-32.248c-4.591-6.896-13.903-8.765-20.798-4.174-6.896 4.59-8.766 13.902-4.175 20.798z"/><path d="m60.828 121.512c2.307 1.281 4.805 1.889 7.269 1.889 5.271 0 10.387-2.785 13.127-7.72 4.022-7.243 1.412-16.374-5.831-20.396l-38.115-21.168c-7.242-4.021-16.375-1.411-20.396 5.831-4.022 7.243-1.412 16.374 5.831 20.396z"/><path d="m410.243 59.737c2.556 1.701 5.442 2.515 8.298 2.515 4.851 0 9.611-2.349 12.5-6.69l21.466-32.249c4.591-6.896 2.722-16.208-4.175-20.798-6.898-4.59-16.209-2.722-20.798 4.175l-21.466 32.249c-4.591 6.896-2.722 16.208 4.175 20.798z"/><path d="m425.115 115.68c2.74 4.936 7.854 7.721 13.127 7.721 2.464 0 4.962-.608 7.269-1.889l38.115-21.167c7.242-4.022 9.854-13.154 5.831-20.396-4.021-7.243-13.152-9.853-20.396-5.832l-38.115 21.167c-7.242 4.022-9.854 13.154-5.831 20.396z"/><path d="m101.759 364.555c-6.897-4.591-16.209-2.721-20.798 4.175l-21.466 32.249c-4.591 6.896-2.722 16.208 4.175 20.798 2.556 1.701 5.442 2.515 8.298 2.515 4.851 0 9.611-2.349 12.5-6.69l21.466-32.249c4.591-6.896 2.722-16.208-4.175-20.798z"/><path d="m86.887 308.612c-4.021-7.243-13.152-9.854-20.396-5.832l-38.115 21.166c-7.242 4.022-9.854 13.153-5.831 20.396 2.74 4.936 7.854 7.721 13.127 7.721 2.464 0 4.962-.608 7.269-1.889l38.115-21.166c7.242-4.022 9.854-13.154 5.831-20.396z"/><path d="m436.704 368.729c-4.591-6.896-13.903-8.765-20.798-4.174-6.896 4.59-8.766 13.902-4.175 20.798l21.467 32.249c2.89 4.341 7.649 6.689 12.5 6.689 2.855 0 5.743-.814 8.298-2.515 6.896-4.59 8.766-13.902 4.175-20.798z"/><path d="m489.289 323.946-38.114-21.166c-7.241-4.022-16.374-1.411-20.396 5.832-4.022 7.242-1.411 16.374 5.831 20.396l38.114 21.166c2.307 1.281 4.805 1.889 7.269 1.889 5.271 0 10.387-2.785 13.127-7.721 4.022-7.242 1.411-16.374-5.831-20.396z"/></g></svg>