<svg id="Layer_1" enable-background="new 0 0 512 512" height="512" viewBox="0 0 512 512" width="512" xmlns="http://www.w3.org/2000/svg"><g><path d="m322.276 162.022c8.284 0 15-6.716 15-15s-6.716-15-15-15h-15v-2.173c0-30.968-25.193-56.162-56.161-56.162h-21.542v-58.687c0-8.284-6.716-15-15-15h-60c-8.284 0-15 6.716-15 15v58.688h-21.542c-30.968 0-56.161 25.194-56.161 56.162v2.173h-15c-8.284 0-15 6.716-15 15s6.716 15 15 15h15v262.915c-17.452 6.121-30 22.761-30 42.277 0 24.694 20.09 44.785 44.786 44.785h215.834c24.695 0 44.786-20.091 44.786-44.786 0-19.516-12.548-36.156-30-42.277v-262.915zm-152.703-132.022h30v43.688h-30zm-77.703 99.849c0-14.426 11.735-26.162 26.161-26.162h133.084c14.426 0 26.161 11.736 26.161 26.162v2.173h-185.406zm185.406 292.579h-185.406v-260.406h185.406zm15.214 59.572h-215.834c-8.153 0-14.786-6.633-14.786-14.786s6.633-14.785 14.786-14.785h215.834c8.153 0 14.786 6.632 14.786 14.785s-6.633 14.786-14.786 14.786z"/><path d="m465.13 88.086h-38.74c-8.284 0-15 6.716-15 15s6.716 15 15 15h38.74c8.284 0 15-6.716 15-15s-6.715-15-15-15z"/><path d="m432.011 159.008-38.74-20c-7.361-3.802-16.409-.913-20.209 6.448-3.801 7.361-.914 16.409 6.447 20.209l38.74 20c2.2 1.136 4.552 1.674 6.868 1.674 5.434 0 10.677-2.961 13.341-8.122 3.801-7.36.915-16.408-6.447-20.209z"/><path d="m386.403 68.838c2.316 0 4.668-.539 6.868-1.674l38.74-20c7.361-3.8 10.248-12.849 6.447-20.209-3.8-7.361-12.848-10.247-20.209-6.448l-38.74 20c-7.361 3.8-10.248 12.849-6.447 20.209 2.664 5.161 7.907 8.122 13.341 8.122z"/><path d="m184.573 350.146c31.938 0 57.921-25.983 57.921-57.92s-25.983-57.92-57.921-57.92-57.921 25.983-57.921 57.92 25.983 57.92 57.921 57.92zm0-85.841c15.396 0 27.921 12.525 27.921 27.92s-12.525 27.92-27.921 27.92-27.921-12.525-27.921-27.92 12.525-27.92 27.921-27.92z"/></g></svg>