<svg id="Layer_1" enable-background="new 0 0 511.954 511.954" height="512" viewBox="0 0 511.954 511.954" width="512" xmlns="http://www.w3.org/2000/svg"><g><path d="m497.818 161.838-147.702-147.702c-18.848-18.848-49.517-18.848-68.364 0l-42.853 42.853-9.525-9.525c-5.857-5.857-15.355-5.857-21.213 0l-160.698 160.696c-5.858 5.857-5.858 15.355 0 21.213l9.525 9.525-42.853 42.853c-18.847 18.848-18.847 49.517 0 68.364l147.703 147.702c9.424 9.424 21.803 14.137 34.182 14.137s24.758-4.713 34.182-14.137l42.853-42.853 9.525 9.525c2.929 2.929 6.768 4.394 10.606 4.394s7.678-1.465 10.606-4.394l160.697-160.697c5.858-5.857 5.858-15.355 0-21.213l-9.525-9.525 42.853-42.853c18.849-18.846 18.849-49.515.001-68.363zm-321.478-40.129 213.904 213.904-54.631 54.631-213.904-213.904zm32.65 354.896c-7.151 7.15-18.787 7.15-25.938 0l-147.703-147.703c-7.151-7.151-7.151-18.787 0-25.938l42.853-42.853 173.641 173.641zm84.197-43.934-213.904-213.904 21.213-21.213 213.904 213.904zm118.271-118.271-213.905-213.904 21.214-21.214 213.904 213.904zm65.148-105.411-42.853 42.853-173.641-173.641 42.853-42.853c7.151-7.15 18.787-7.15 25.938 0l147.702 147.702c7.151 7.152 7.151 18.788.001 25.939z"/></g></svg>