<svg id="Layer_1" enable-background="new 0 0 512 512" height="512" viewBox="0 0 512 512" width="512" xmlns="http://www.w3.org/2000/svg"><g><path d="m350.943 189.523c-.019-.014-.031-.028-.051-.042l-86.058-59.383c-5.112-3.528-11.871-3.539-16.996-.029l-86.688 59.383c-.021.014-.033.03-.053.044-4.018 2.779-6.47 7.371-6.47 12.331v108.562c0 4.948 2.44 9.578 6.523 12.375l86.373 59.167c2.543 1.742 5.505 2.625 8.478 2.625 2.395 0 4.797-.573 6.994-1.73.503-.265.981-.563 1.444-.878.013-.008.026-.008.038-.016l86.373-59.167c4.083-2.797 6.523-7.427 6.523-12.375v-108.563c0-4.944-2.436-9.522-6.43-12.304zm-94.659-28.876 59.612 41.135-11.947 8.184-47.949 32.847-59.831-40.986zm-71.657 69.638 56.373 38.617v72.197l-56.373-38.616zm86.373 110.814v-72.197l56.373-38.617v72.198z"/><path d="m497 241h-29.695c-7.373-104.88-91.425-188.932-196.305-196.305v-29.695c0-8.284-6.716-15-15-15s-15 6.716-15 15v29.695c-104.88 7.373-188.932 91.425-196.305 196.305h-29.695c-8.284 0-15 6.716-15 15s6.716 15 15 15h29.695c7.373 104.88 91.425 188.932 196.305 196.305v29.695c0 8.284 6.716 15 15 15s15-6.716 15-15v-29.695c104.88-7.373 188.932-91.425 196.305-196.305h29.695c8.284 0 15-6.716 15-15s-6.716-15-15-15zm-241 196.843c-100.269 0-181.843-81.574-181.843-181.843s81.574-181.843 181.843-181.843 181.843 81.574 181.843 181.843-81.574 181.843-181.843 181.843z"/></g></svg>