<svg id="Layer_1" enable-background="new 0 0 512 512" height="512" viewBox="0 0 512 512" width="512" xmlns="http://www.w3.org/2000/svg"><g><path d="m443.03 188.058h-6.794v-45.604c0-8.284-6.716-15-15-15h-18.482v-112.454c0-8.284-6.716-15-15-15s-15 6.716-15 15v112.454h-18.482c-8.284 0-15 6.716-15 15v45.604h-270.303c-38.03 0-68.969 30.939-68.969 68.968v186.004c0 38.031 30.939 68.97 68.969 68.97h374.061c38.03 0 68.97-30.939 68.97-68.97v-186.004c0-38.029-30.939-68.968-68.97-68.968zm-73.758-30.604h36.964v30.604h-36.964zm112.728 285.576c0 21.488-17.481 38.97-38.97 38.97h-374.061c-21.488 0-38.969-17.481-38.969-38.97v-186.004c0-21.487 17.481-38.969 38.969-38.969h374.061c21.488 0 38.97 17.481 38.97 38.969z"/><path d="m354.272 366.984h-279.272c-8.284 0-15 6.716-15 15v55.016c0 8.284 6.716 15 15 15h279.272c8.284 0 15-6.716 15-15v-55.016c0-8.284-6.716-15-15-15zm-15 55.016h-249.272v-25.016h249.272z"/><path d="m240.236 277.54h31.527c8.284 0 15-6.716 15-15s-6.716-15-15-15h-31.527c-8.284 0-15 6.716-15 15s6.716 15 15 15z"/><path d="m75 277.54h31.527c8.284 0 15-6.716 15-15s-6.716-15-15-15h-31.527c-8.284 0-15 6.716-15 15s6.716 15 15 15z"/><path d="m157.728 277.54h31.528c8.284 0 15-6.716 15-15s-6.716-15-15-15h-31.528c-8.284 0-15 6.716-15 15s6.716 15 15 15z"/><path d="m354.272 247.54h-31.528c-8.284 0-15 6.716-15 15s6.716 15 15 15h31.528c8.284 0 15-6.716 15-15s-6.716-15-15-15z"/><path d="m437 247.54h-31.527c-8.284 0-15 6.716-15 15s6.716 15 15 15h31.527c8.284 0 15-6.716 15-15s-6.716-15-15-15z"/><path d="m240.236 337.625h31.527c8.284 0 15-6.716 15-15s-6.716-15-15-15h-31.527c-8.284 0-15 6.716-15 15s6.716 15 15 15z"/><path d="m75 337.625h31.527c8.284 0 15-6.716 15-15s-6.716-15-15-15h-31.527c-8.284 0-15 6.716-15 15s6.716 15 15 15z"/><path d="m157.728 337.625h31.528c8.284 0 15-6.716 15-15s-6.716-15-15-15h-31.528c-8.284 0-15 6.716-15 15s6.716 15 15 15z"/><path d="m354.272 307.625h-31.528c-8.284 0-15 6.716-15 15s6.716 15 15 15h31.528c8.284 0 15-6.716 15-15s-6.716-15-15-15z"/><path d="m437 307.625h-31.527c-8.284 0-15 6.716-15 15s6.716 15 15 15h31.527c8.284 0 15-6.716 15-15s-6.716-15-15-15z"/><path d="m437 394.492h-31.527c-8.284 0-15 6.716-15 15s6.716 15 15 15h31.527c8.284 0 15-6.716 15-15s-6.716-15-15-15z"/></g></svg>