<svg id="Layer_1" enable-background="new 0 0 512 512" height="512" viewBox="0 0 512 512" width="512" xmlns="http://www.w3.org/2000/svg"><g><path d="m474.666 81.635c-36.742 0-66.635-29.893-66.635-66.635 0-8.284-6.716-15-15-15h-274.062c-8.284 0-15 6.716-15 15 0 36.742-29.893 66.635-66.635 66.635-8.284 0-15 6.716-15 15v85.1c0 71.963 21.679 141.256 62.691 200.387 41.013 59.132 98.317 103.714 165.719 128.928 1.694.633 3.476.95 5.256.95s3.562-.317 5.256-.951c67.401-25.214 124.706-69.796 165.719-128.928 41.013-59.131 62.691-128.423 62.691-200.386v-85.1c0-8.284-6.716-15-15-15zm-15 100.1c0 65.822-19.829 129.202-57.343 183.288-36.441 52.541-86.951 92.527-146.323 115.911-59.372-23.384-109.882-63.369-146.323-115.91-37.514-54.086-57.343-117.466-57.343-183.289v-71.262c41.301-6.462 74.011-39.172 80.473-80.473h246.387c6.462 41.301 39.172 74.011 80.473 80.473v71.262z"/><path d="m360.055 68.284c-2.472-5.264-7.763-8.624-13.577-8.624h-180.754c-5.814 0-11.105 3.36-13.577 8.624-12.588 26.805-34.283 48.5-61.088 61.088-5.264 2.472-8.624 7.763-8.624 13.577v38.445c0 59.684 17.979 117.151 51.993 166.191 29.219 42.126 69.086 75.875 115.291 97.598 2.021.95 4.201 1.426 6.382 1.426s4.36-.476 6.382-1.426c46.205-21.723 86.072-55.472 115.291-97.598 34.015-49.04 51.993-106.508 51.993-166.19v-38.446c0-5.814-3.36-11.105-8.624-13.577-26.805-12.588-48.5-34.283-61.088-61.088zm39.712 113.112c0 53.543-16.129 105.099-46.644 149.093-24.859 35.84-58.297 64.915-97.022 84.438-38.726-19.523-72.163-48.599-97.022-84.438-30.515-43.994-46.644-95.551-46.644-149.094v-29.249c26.324-14.412 48.073-36.161 62.485-62.485h162.361c14.412 26.324 36.161 48.073 62.485 62.485v29.25z"/><path d="m345.565 179.797c-16.489 0-29.904-13.415-29.904-29.904 0-8.284-6.716-15-15-15h-89.322c-8.284 0-15 6.716-15 15 0 16.489-13.415 29.904-29.904 29.904-5.418 0-10.414 2.921-13.071 7.643-2.657 4.721-2.563 10.508.248 15.14l89.565 147.581c2.72 4.481 7.581 7.218 12.823 7.218s10.104-2.736 12.823-7.218l89.565-147.581c2.811-4.632 2.905-10.419.248-15.14-2.657-4.722-7.653-7.643-13.071-7.643zm-74.565 108.953v-56.978h5.602c8.284 0 15-6.716 15-15s-6.716-15-15-15h-41.203c-8.284 0-15 6.716-15 15s6.716 15 15 15h5.601v56.978l-50.879-83.836c16.809-7.264 29.657-22.013 34.316-40.021h63.125c4.659 18.009 17.508 32.758 34.316 40.021z"/></g></svg>