<svg id="Layer_1" enable-background="new 0 0 512 512" height="512" viewBox="0 0 512 512" width="512" xmlns="http://www.w3.org/2000/svg"><g><path d="m457.586 114.953c0-8.574-3.342-16.632-9.409-22.692 0-.001 0-.001-.001-.001l-83.01-82.893c-12.509-12.491-32.861-12.489-45.368 0l-310.387 309.951c-6.069 6.06-9.411 14.12-9.411 22.695 0 8.574 3.342 16.633 9.411 22.693l83.009 82.892c6.255 6.247 14.469 9.369 22.685 9.369 8.215 0 16.431-3.123 22.684-9.368l310.389-309.952c6.066-6.061 9.408-14.12 9.408-22.694zm-30.607 1.465-18.953 18.926-24.28-24.246c-5.862-5.855-15.358-5.847-21.213.016-5.854 5.863-5.847 15.36.016 21.214l24.25 24.215-20.419 20.391-24.28-24.246c-5.861-5.854-15.357-5.848-21.213.016-5.854 5.863-5.847 15.36.016 21.214l24.249 24.215-20.419 20.391-24.28-24.245c-5.862-5.855-15.358-5.847-21.213.016-5.854 5.863-5.847 15.36.016 21.214l24.249 24.215-20.419 20.39-24.28-24.246c-5.861-5.854-15.357-5.848-21.213.016-5.854 5.863-5.847 15.36.016 21.214l24.249 24.215-20.423 20.387-24.28-24.245c-5.862-5.855-15.358-5.847-21.213.016-5.854 5.863-5.847 15.36.016 21.214l24.249 24.215-20.419 20.391-24.28-24.245c-5.862-5.854-15.358-5.848-21.213.016-5.854 5.863-5.847 15.36.016 21.214l24.249 24.214-20.419 20.39-24.28-24.246c-5.861-5.855-15.357-5.847-21.213.016-5.854 5.863-5.847 15.36.016 21.214l24.249 24.215-20.323 20.291c-.818.816-2.151.817-2.972-.001l-83.01-82.893c-.503-.502-.608-1.073-.608-1.464 0-.392.105-.963.608-1.465l310.387-309.95c.41-.409.948-.614 1.486-.614.539 0 1.077.205 1.487.614l83.009 82.893c.503.502.608 1.073.608 1.464.001.391-.105.962-.606 1.464z"/><path d="m497 204.738h-55.25c-8.284 0-15 6.716-15 15.001s6.716 15.001 15 15.001h19l-226.4 226.083v-18.996c0-8.284-6.716-15.001-15-15.001s-15 6.716-15 15.001v55.174c0 8.284 6.716 15.001 15 15.001h55.25c8.284 0 15-6.716 15-15.001 0-8.284-6.716-15.001-15-15.001h-19l226.4-226.084v18.995c0 8.284 6.716 15.001 15 15.001s15-6.716 15-15.001v-55.173c0-8.284-6.716-15-15-15z"/></g></svg>