<svg id="Layer_1" enable-background="new 0 0 512 512" height="512" viewBox="0 0 512 512" width="512" xmlns="http://www.w3.org/2000/svg"><g><path d="m471.794 137.521h-431.587c-22.17 0-40.207 18.036-40.207 40.206v275.317c0 22.17 18.037 40.206 40.207 40.206h431.587c22.17 0 40.207-18.036 40.207-40.206v-275.317c-.001-22.17-18.038-40.206-40.207-40.206zm-441.794 315.523v-275.317c0-5.628 4.579-10.206 10.207-10.206h111.499v295.729h-111.499c-5.628.001-10.207-4.578-10.207-10.206zm452 0c0 5.628-4.579 10.206-10.207 10.206h-290.087v-295.729h290.088c5.628 0 10.207 4.578 10.207 10.206v275.317z"/><path d="m106.885 300.385h-32.359c-8.284 0-15 6.716-15 15s6.716 15 15 15h32.358c8.284 0 15-6.716 15-15s-6.715-15-14.999-15z"/><path d="m90.706 275.699c8.284 0 15-6.716 15-15v-48.213c0-8.284-6.716-15-15-15s-15 6.716-15 15v48.213c0 8.284 6.715 15 15 15z"/><path d="m90.706 355.038c-8.284 0-15 6.716-15 15v48.213c0 8.284 6.716 15 15 15s15-6.716 15-15v-48.213c0-8.285-6.716-15-15-15z"/><path d="m274.666 197.486h-48.213c-8.284 0-15 6.716-15 15v48.213c0 8.284 6.716 15 15 15s15-6.716 15-15v-33.213h33.213c8.284 0 15-6.716 15-15s-6.716-15-15-15z"/><path d="m437 197.486h-48.213c-8.284 0-15 6.716-15 15s6.716 15 15 15h33.213v33.213c0 8.284 6.716 15 15 15s15-6.716 15-15v-48.213c0-8.284-6.716-15-15-15z"/><path d="m437 355.038c-8.284 0-15 6.716-15 15v33.213h-33.213c-8.284 0-15 6.716-15 15s6.716 15 15 15h48.213c8.284 0 15-6.716 15-15v-48.213c0-8.285-6.716-15-15-15z"/><path d="m274.666 403.251h-33.213v-33.213c0-8.284-6.716-15-15-15s-15 6.716-15 15v48.213c0 8.284 6.716 15 15 15h48.213c8.284 0 15-6.716 15-15s-6.716-15-15-15z"/><path d="m70.791 108.112h396.528c24.637 0 44.681-20.044 44.681-44.682 0-24.637-20.044-44.681-44.681-44.681h-396.528c-27.408 0-52.915 13.569-68.23 36.299-3.414 5.066-3.414 11.697 0 16.764 15.315 22.73 40.821 36.3 68.23 36.3zm411.209-44.682c0 8.096-6.586 14.682-14.681 14.682h-28v-29.362h28c8.095 0 14.681 6.585 14.681 14.68zm-411.209-14.68h338.528v29.362h-338.528c-13.719 0-26.687-5.35-36.331-14.682 9.644-9.331 22.612-14.68 36.331-14.68z"/></g></svg>