<svg id="Layer_1" enable-background="new 0 0 512 512" height="512" viewBox="0 0 512 512" width="512" xmlns="http://www.w3.org/2000/svg"><g><path d="m203.261 93.901 5.03 10.041c2.63 5.251 7.925 8.285 13.423 8.285 2.258 0 4.551-.512 6.706-1.592 7.407-3.71 10.404-12.723 6.693-20.129l-5.029-10.042c-2.3-4.59-1.406-10.113 2.226-13.745 12.781-12.782 15.93-32.23 7.834-48.394l-5.03-10.041c-3.711-7.406-12.721-10.402-20.13-6.692-7.407 3.711-10.403 12.723-6.692 20.13l5.029 10.04c2.3 4.591 1.405 10.115-2.225 13.746-12.783 12.782-15.931 32.23-7.835 48.393z"/><path d="m126.577 93.901 5.03 10.041c2.63 5.251 7.925 8.285 13.423 8.285 2.258 0 4.55-.512 6.707-1.592 7.407-3.71 10.403-12.723 6.693-20.129l-5.03-10.042c-2.299-4.59-1.405-10.113 2.226-13.744 12.782-12.783 15.931-32.231 7.834-48.395l-5.03-10.041c-3.71-7.407-12.723-10.403-20.13-6.692s-10.403 12.723-6.692 20.13l5.03 10.04c2.3 4.591 1.405 10.115-2.225 13.746-12.785 12.783-15.933 32.23-7.836 48.393z"/><path d="m279.946 93.902 5.03 10.041c2.631 5.251 7.924 8.284 13.423 8.284 2.258 0 4.551-.512 6.707-1.592 7.406-3.711 10.403-12.723 6.692-20.13l-5.03-10.041c-2.3-4.59-1.405-10.113 2.227-13.745 12.782-12.783 15.93-32.231 7.834-48.393l-5.029-10.041c-3.71-7.406-12.722-10.401-20.13-6.694-7.407 3.71-10.404 12.723-6.694 20.13l5.03 10.042c2.3 4.591 1.405 10.114-2.224 13.744-12.784 12.782-15.934 32.231-7.836 48.395z"/><path d="m415.622 174.702h-29.635c-6.292-18.844-24.103-32.466-45.036-32.466h-238.496c-26.172 0-47.465 21.293-47.465 47.465v95.586c0 56.513 28.266 106.548 71.402 136.712h-77.808c-5.199 0-10.027 2.691-12.76 7.114-2.733 4.422-2.981 9.944-.657 14.594 10.268 20.536 26.019 37.77 45.549 49.841 19.53 12.07 41.99 18.45 64.949 18.45h152.072c22.96 0 45.419-6.38 64.949-18.45 19.531-12.071 35.281-29.305 45.549-49.841 2.325-4.649 2.077-10.172-.656-14.594-2.733-4.423-7.562-7.114-12.76-7.114h-77.808c39.278-27.466 66.227-71.407 70.733-121.712h27.875c34.625 0 62.794-28.169 62.794-62.793.002-34.623-28.166-62.792-62.791-62.792zm-49.163 277.298c-17.406 18.924-42.057 30-68.721 30h-152.072c-26.664 0-51.313-11.076-68.721-30zm-144.756-29.999c-75.383 0-136.712-61.329-136.712-136.712v-95.586c0-9.631 7.834-17.466 17.465-17.466h238.496c9.63 0 17.465 7.835 17.465 17.466v95.586c-.002 75.383-61.331 136.712-136.714 136.712zm193.919-151.712h-27.206v-65.586h27.206c18.083 0 32.794 14.711 32.794 32.794-.001 18.081-14.711 32.792-32.794 32.792z"/></g></svg>