<svg id="Layer_1" enable-background="new 0 0 512 512" height="512" viewBox="0 0 512 512" width="512" xmlns="http://www.w3.org/2000/svg"><g><path d="m497 427.456h-39.645v-342.912h39.645c8.284 0 15-6.716 15-15s-6.716-15-15-15h-39.645v-39.544c0-8.284-6.716-15-15-15s-15 6.716-15 15v39.544h-342.912v-39.544c0-8.284-6.716-15-15-15s-15 6.716-15 15v39.544h-39.443c-8.284 0-15 6.716-15 15s6.716 15 15 15h39.443v342.912h-39.443c-8.284 0-15 6.716-15 15s6.716 15 15 15h39.443v39.544c0 8.284 6.716 15 15 15s15-6.716 15-15v-39.544h342.912v39.544c0 8.284 6.716 15 15 15s15-6.716 15-15v-39.544h39.645c8.284 0 15-6.716 15-15s-6.716-15-15-15zm-412.557 0v-342.912h342.912v342.912z"/><path d="m365.311 186.748-45.831-55.831c-2.849-3.471-7.104-5.482-11.594-5.482h-122.826c-23.036 0-41.777 18.741-41.777 41.776v177.578c0 23.035 18.741 41.776 41.777 41.776h141.88c23.035 0 41.776-18.741 41.776-41.776v-148.523c.001-3.471-1.203-6.835-3.405-9.518zm-26.594 158.041c0 6.493-5.283 11.776-11.776 11.776h-141.881c-6.494 0-11.777-5.283-11.777-11.776v-177.578c0-6.493 5.283-11.776 11.777-11.776h115.732l37.925 46.199z"/></g></svg>