<svg id="Layer_1" enable-background="new 0 0 512 512" height="512" viewBox="0 0 512 512" width="512" xmlns="http://www.w3.org/2000/svg"><g><path d="m461.19 50.727c-67.635-67.636-177.689-67.636-245.324 0-32.765 32.765-50.809 76.329-50.809 122.667 0 31.902 8.553 62.488 24.574 89.142-1.619-.049-3.244-.033-4.872.047-17.345.866-33.599 9.072-44.607 22.528l-130.953 160.476c-13.246 16.233-12.064 39.647 2.751 54.462h.001c7.927 7.927 18.312 11.951 28.742 11.951 9.072 0 18.177-3.045 25.727-9.213l160.295-130.937c13.487-10.982 21.732-27.245 22.617-44.617.085-1.671.102-3.338.051-4.998 27.334 16.369 58.239 24.553 89.144 24.553 44.422 0 88.845-16.91 122.662-50.728 32.767-32.765 50.811-76.329 50.811-122.666s-18.044-89.902-50.81-122.667zm-413.744 428.824c-4.257 3.475-10.399 3.167-14.286-.719-3.883-3.884-4.193-10.021-.721-14.276l91.442-112.058 35.564 35.564zm171.928-153.848c-.461 9.04-4.581 17.165-11.616 22.895l-24.962 20.39-39.851-39.852 20.435-25.042c5.723-6.995 13.846-11.096 22.873-11.547 9.032-.453 17.522 2.822 23.912 9.213 6.4 6.401 9.671 14.905 9.209 23.943zm220.606-50.859c-55.942 55.941-146.964 55.941-202.906 0-27.097-27.099-42.021-63.128-42.021-101.45s14.924-74.351 42.021-101.45c27.97-27.971 64.712-41.955 101.453-41.955s73.483 13.984 101.453 41.955c27.098 27.099 42.022 63.128 42.022 101.45s-14.923 74.351-42.022 101.45z"/><path d="m404.176 158.393h-50.649v-50.647c0-8.285-6.715-15.001-14.999-15.001s-14.999 6.716-14.999 15.001v50.647h-50.649c-8.284 0-14.999 6.716-14.999 15.001s6.715 15.001 14.999 15.001h50.649v50.647c0 8.285 6.715 15.001 14.999 15.001s14.999-6.716 14.999-15.001v-50.647h50.649c8.284 0 14.999-6.716 14.999-15.001s-6.716-15.001-14.999-15.001z"/></g></svg>