<svg id="Layer_1" enable-background="new 0 0 512 512" height="512" viewBox="0 0 512 512" width="512" xmlns="http://www.w3.org/2000/svg"><g><path d="m453.006 133.801h-65.192l-16.084-41.536c-8.324-21.495-29.403-35.937-52.454-35.937h-126.552c-23.051 0-44.13 14.441-52.454 35.937l-16.084 41.536h-65.193c-32.529 0-58.993 26.465-58.993 58.994v203.884c0 32.529 26.464 58.993 58.993 58.993h394.013c32.529 0 58.994-26.464 58.994-58.993v-203.884c0-32.529-26.464-58.994-58.994-58.994zm-423.006 130.904h124.019c-2.115 8.306-3.24 17.004-3.24 25.959s1.125 17.653 3.24 25.959h-124.019zm452 131.974c0 15.987-13.006 28.993-28.994 28.993h-394.013c-15.987 0-28.993-13.006-28.993-28.993v-50.056h136.925c18.646 29.575 51.604 49.263 89.075 49.263s70.429-19.688 89.075-49.263h136.925zm-301.222-106.015c0-41.478 33.744-75.222 75.222-75.222s75.222 33.744 75.222 75.222-33.744 75.222-75.222 75.222-75.222-33.744-75.222-75.222zm301.222 25.959h-124.019c2.115-8.306 3.24-17.004 3.24-25.959s-1.125-17.653-3.24-25.959h124.019zm0-81.918h-136.925c-18.646-29.575-51.604-49.263-89.075-49.263s-70.429 19.688-89.075 49.263h-136.925v-41.91c0-15.987 13.006-28.994 28.993-28.994h75.469c6.194 0 11.751-3.808 13.988-9.583l19.795-51.119c3.884-10.031 13.722-16.771 24.479-16.771h126.553c10.757 0 20.594 6.739 24.479 16.771l19.795 51.119c2.237 5.775 7.793 9.583 13.988 9.583h75.469c15.987 0 28.994 13.007 28.994 28.994v41.91z"/><path d="m291.703 116.108h-71.407c-8.284 0-15 6.716-15 15s6.716 15 15 15h71.407c8.284 0 15-6.716 15-15s-6.716-15-15-15z"/><path d="m256 340.501c27.48 0 49.837-22.356 49.837-49.837s-22.357-49.838-49.837-49.838-49.837 22.357-49.837 49.838 22.357 49.837 49.837 49.837zm0-69.675c10.938 0 19.837 8.899 19.837 19.838s-8.899 19.837-19.837 19.837-19.837-8.898-19.837-19.837 8.899-19.838 19.837-19.838z"/></g></svg>