<svg id="Layer_1" enable-background="new 0 0 511.987 511.987" height="512" viewBox="0 0 511.987 511.987" width="512" xmlns="http://www.w3.org/2000/svg"><g><path d="m486.016 127.97c-17.46-45.461-50.578-81.358-95.774-103.811-41.284-20.51-90.694-28.335-139.133-22.035-35.828 4.659-69.854 17.175-98.402 36.192-55.75 37.14-92.32 97.278-97.825 160.87-.826 9.544.576 19.1 1.933 28.34 1.421 9.688 2.764 18.838 1.11 25.426-.365 1.46-4.467 15.157-35.673 46.026-7.851 7.766-10.845 19.182-7.813 29.794 3.026 10.597 11.583 18.697 22.332 21.142 4.461 1.015 8.511 1.909 12.046 2.69 1.113.246 2.234.494 3.326.736.067 8.547.17 19.967.307 30.518 0 .084.001.169.003.253.17 13.014.392 24.657.663 27.879 1.057 12.551 6.577 23.064 15.961 30.406 13.016 10.184 32.709 13.508 56.954 9.621 18.706-3.005 29.826 1.73 33.064 14.07.29 2.432 1.142 9.888 1.694 18.044 1.058 15.62 14.137 27.855 29.777 27.855h193.194c16.455 0 29.843-13.388 29.843-29.843v-53.392c0-37.646 5.923-63.254 17.604-76.112 28.979-31.903 49.679-67.752 59.861-103.669 11.671-41.172 9.972-81.883-5.052-121zm-23.812 112.82c-8.926 31.484-27.323 63.187-53.205 91.679-17.089 18.814-25.396 50.309-25.396 96.284v53.234h-192.89c-.733-10.765-1.906-20.096-1.956-20.489-.065-.513-.156-1.021-.273-1.524-3.123-13.395-10.586-24.058-21.583-30.837-12.012-7.403-27.361-9.674-45.623-6.74-15.334 2.457-27.624 1.137-33.716-3.629-1.732-1.354-4.088-3.792-4.551-9.295-.093-1.108-.186-4.019-.275-8.132 2.602.187 5.399.301 8.349.301 20.024 0 47.12-5.255 68.382-28.687 5.567-6.135 5.106-15.621-1.028-21.188-6.136-5.566-15.622-5.105-21.188 1.028-17.269 19.031-41.226 19.896-54.941 18.458-.108-10.36-.195-21.063-.25-29.685-.034-5.349-2.914-10.274-7.558-12.929-3.09-1.766-6.505-2.52-19.21-5.328-3.483-.77-7.473-1.651-11.869-2.651-.049-.011-.083-.021-.095-.022-.039-.065-.072-.189-.072-.222 0 0 .022-.038.095-.109 24.91-24.642 40.015-45.416 43.676-60.063 3.1-12.346 1.255-24.916-.528-37.072-1.158-7.887-2.251-15.337-1.727-21.396 2.333-26.944 11.52-54.054 26.568-78.399 14.748-23.858 34.804-44.638 58.001-60.092 24.737-16.479 54.351-27.341 85.639-31.409 42.607-5.541 85.901 1.261 121.917 19.153 38.348 19.051 66.397 49.377 81.115 87.699 12.645 32.927 14.056 67.266 4.192 102.062z"/><path d="m283.489 74.987c-70.789 0-128.38 57.591-128.38 128.38 0 44.271 23.078 85.628 60.515 108.992l22.173 41.757v38.569c0 25.194 20.497 45.691 45.692 45.691 25.194 0 45.691-20.497 45.691-45.691v-38.569l22.173-41.757c37.438-23.363 60.516-64.721 60.516-108.992 0-70.789-57.591-128.38-128.38-128.38zm15.691 317.698c0 8.652-7.039 15.691-15.691 15.691s-15.692-7.039-15.692-15.691v-27.305h31.384v27.305zm33.383-104.031c-2.438 1.407-4.433 3.472-5.753 5.958l-21.648 40.769h-6.598v-96.272l30.429-30.428c5.858-5.857 5.858-15.354 0-21.213-5.856-5.858-15.354-5.858-21.213 0l-24.216 24.215-24.215-24.215c-5.858-5.857-15.356-5.856-21.213 0-5.858 5.857-5.858 15.355 0 21.213l30.428 30.428v96.272h-6.749l-21.648-40.769c-1.32-2.486-3.314-4.551-5.752-5.958-30.413-17.544-49.306-50.225-49.306-85.287 0-54.247 44.133-98.38 98.38-98.38s98.38 44.133 98.38 98.38c0 35.063-18.893 67.743-49.306 85.287z"/></g></svg>