<svg id="Layer_1" enable-background="new 0 0 512 512" height="512" viewBox="0 0 512 512" width="512" xmlns="http://www.w3.org/2000/svg"><g><path d="m497 105.925c8.284 0 15-6.716 15-15v-75.925c0-8.284-6.716-15-15-15h-75.925c-8.284 0-15 6.716-15 15v22.963h-300.15v-22.963c0-8.284-6.716-15-15-15h-75.925c-8.284 0-15 6.716-15 15v75.925c0 8.284 6.716 15 15 15h22.963v300.15h-22.963c-8.284 0-15 6.716-15 15v75.925c0 8.284 6.716 15 15 15h75.925c8.284 0 15-6.716 15-15v-22.963h300.15v22.963c0 8.284 6.716 15 15 15h75.925c8.284 0 15-6.716 15-15v-75.925c0-8.284-6.716-15-15-15h-22.963v-300.15zm-60.925-75.925h45.925v45.925h-45.925zm-406.075 0h45.925v45.925h-45.925zm45.925 452h-45.925v-45.925h45.925zm406.075 0h-45.925v-45.925h45.925zm-37.963-75.925h-22.962c-8.284 0-15 6.716-15 15v22.962h-300.15v-22.962c0-8.284-6.716-15-15-15h-22.962v-300.15h22.962c8.284 0 15-6.716 15-15v-22.962h300.15v22.962c0 8.284 6.716 15 15 15h22.962z"/><path d="m276.975 134.127c-2.437-5.349-7.772-8.781-13.65-8.781-5.877 0-11.214 3.433-13.65 8.781l-99.911 219.309c-2.574 5.65-1.4 12.303 2.951 16.732 2.881 2.931 6.758 4.487 10.703 4.486 2.016 0 4.049-.406 5.975-1.243l93.933-40.819 93.932 40.819c5.697 2.476 12.326 1.186 16.678-3.243 4.352-4.43 5.525-11.082 2.951-16.732zm-7.672 168.352c-3.814-1.658-8.143-1.658-11.957 0l-64.09 27.852 70.068-153.804 70.068 153.804z"/></g></svg>