<svg id="Layer_1" enable-background="new 0 0 512 512" height="512" viewBox="0 0 512 512" width="512" xmlns="http://www.w3.org/2000/svg"><g><path d="m321.343 34.543h-23.043v-19.543c0-8.284-6.716-15-15-15s-15 6.716-15 15v19.543h-34.701v-19.543c0-8.284-6.716-15-15-15s-15 6.716-15 15v19.543h-35.197v-19.543c0-8.284-6.716-15-15-15s-15 6.716-15 15v19.543h-34.702v-19.543c0-8.284-6.716-15-15-15s-15 6.716-15 15v19.543h-23.043c-27.932 0-50.657 22.725-50.657 50.656v376.144c0 27.932 22.725 50.657 50.657 50.657h270.686c27.932 0 50.657-22.725 50.657-50.657v-376.144c0-27.931-22.725-50.656-50.657-50.656zm20.657 426.8c0 11.391-9.267 20.657-20.657 20.657h-270.686c-11.39 0-20.657-9.267-20.657-20.657v-376.144c0-11.39 9.267-20.656 20.657-20.656h23.043v13.543c0 8.284 6.716 15 15 15s15-6.716 15-15v-13.543h34.701v13.543c0 8.284 6.716 15 15 15s15-6.716 15-15v-13.543h35.197v13.543c0 8.284 6.716 15 15 15s15-6.716 15-15v-13.543h34.702v13.543c0 8.284 6.716 15 15 15s15-6.716 15-15v-13.543h23.043c11.391 0 20.657 9.267 20.657 20.656z"/><path d="m467.318 0c-24.638 0-44.682 20.044-44.682 44.682v396.527c0 27.407 13.57 52.914 36.3 68.23 2.533 1.707 5.457 2.561 8.382 2.561 2.924 0 5.849-.854 8.382-2.561 22.729-15.315 36.3-40.822 36.3-68.23v-396.527c0-24.638-20.044-44.682-44.682-44.682zm0 30c8.096 0 14.682 6.586 14.682 14.682v28h-29.363v-28c0-8.096 6.586-14.682 14.681-14.682zm0 447.54c-9.331-9.645-14.682-22.613-14.682-36.331v-338.527h29.364v338.527c0 13.719-5.35 26.687-14.682 36.331z"/><path d="m283.3 138.269h-194.6c-8.284 0-15 6.716-15 15s6.716 15 15 15h194.6c8.284 0 15-6.716 15-15s-6.716-15-15-15z"/><path d="m283.3 198.062h-194.6c-8.284 0-15 6.716-15 15s6.716 15 15 15h194.6c8.284 0 15-6.716 15-15s-6.716-15-15-15z"/><path d="m88.7 288.062h164.6c8.284 0 15-6.716 15-15s-6.716-15-15-15h-164.6c-8.284 0-15 6.716-15 15s6.716 15 15 15z"/><path d="m283.3 318.274h-194.6c-8.284 0-15 6.716-15 15s6.716 15 15 15h194.6c8.284 0 15-6.716 15-15s-6.716-15-15-15z"/><path d="m253.3 378.274h-164.6c-8.284 0-15 6.716-15 15s6.716 15 15 15h164.6c8.284 0 15-6.716 15-15s-6.716-15-15-15z"/></g></svg>