<svg id="Layer_1" enable-background="new 0 0 512 512" height="512" viewBox="0 0 512 512" width="512" xmlns="http://www.w3.org/2000/svg"><g><path d="m145.676 93.372c8.284 0 15-6.716 15-15s-6.716-15-15-15h-49.157c-8.284 0-15 6.716-15 15v85.451c0 8.284 6.716 15 15 15h49.157c8.284 0 15-6.716 15-15s-6.716-15-15-15h-34.157v-55.451z"/><path d="m145.676 331.602c-8.284 0-15 6.716-15 15v21.726h-19.157v-21.726c0-8.284-6.716-15-15-15s-15 6.716-15 15v36.726c0 8.284 6.716 15 15 15h34.157v18.725h-34.157c-8.284 0-15 6.716-15 15s6.716 15 15 15h49.157c8.284 0 15-6.716 15-15v-85.45c0-8.286-6.716-15.001-15-15.001z"/><path d="m361.324 178.823c8.284 0 15-6.716 15-15v-37.178l2.22 3.228c2.798 4.068 7.42 6.499 12.358 6.499s9.56-2.431 12.358-6.499l2.22-3.228v37.178c0 8.284 6.716 15 15 15s15-6.716 15-15v-85.451c0-6.569-4.275-12.375-10.549-14.324-6.274-1.951-13.087.41-16.81 5.823l-17.22 25.034-17.22-25.034c-3.724-5.413-10.535-7.776-16.81-5.823-6.273 1.949-10.549 7.755-10.549 14.324v85.451c.002 8.284 6.718 15 15.002 15z"/><path d="m430.481 346.602c0-8.284-6.716-15-15-15s-15 6.716-15 15c0 11.111-8.384 20.3-19.157 21.574v-21.574c0-8.284-6.716-15-15-15s-15 6.716-15 15v85.45c0 8.284 6.716 15 15 15s15-6.716 15-15v-21.573c10.773 1.274 19.157 10.463 19.157 21.573 0 8.284 6.716 15 15 15s15-6.716 15-15c0-17.728-8.965-33.401-22.599-42.725 13.634-9.324 22.599-24.997 22.599-42.725z"/><path d="m121.098 0c-66.774 0-121.098 54.324-121.098 121.098s54.324 121.098 121.098 121.098 121.098-54.324 121.098-121.098-54.324-121.098-121.098-121.098zm0 212.195c-50.232 0-91.098-40.866-91.098-91.097s40.866-91.098 91.098-91.098 91.098 40.866 91.098 91.098-40.867 91.097-91.098 91.097z"/><path d="m390.902 242.195c66.773 0 121.098-54.324 121.098-121.098s-54.324-121.097-121.098-121.097-121.098 54.324-121.098 121.098 54.324 121.097 121.098 121.097zm0-212.195c50.232 0 91.098 40.866 91.098 91.098s-40.866 91.098-91.098 91.098-91.098-40.866-91.098-91.098 40.867-91.098 91.098-91.098z"/><path d="m121.098 269.805c-66.774 0-121.098 54.324-121.098 121.097s54.324 121.098 121.098 121.098 121.098-54.324 121.098-121.098-54.324-121.097-121.098-121.097zm0 212.195c-50.232 0-91.098-40.866-91.098-91.098s40.866-91.098 91.098-91.098 91.098 40.866 91.098 91.098-40.867 91.098-91.098 91.098z"/><path d="m390.902 269.805c-66.774 0-121.098 54.324-121.098 121.098s54.324 121.097 121.098 121.097 121.098-54.324 121.098-121.098-54.324-121.097-121.098-121.097zm0 212.195c-50.231 0-91.098-40.866-91.098-91.098s40.867-91.098 91.098-91.098 91.098 40.867 91.098 91.098-40.866 91.098-91.098 91.098z"/></g></svg>