<svg id="Layer_1" enable-background="new 0 0 512 512" height="512" viewBox="0 0 512 512" width="512" xmlns="http://www.w3.org/2000/svg"><g><path d="m432.027 57.821h-92.599v-42.821c0-8.284-6.716-15-15-15h-136.74c-8.284 0-15 6.716-15 15v42.821h-92.715c-8.284 0-15 6.716-15 15s6.716 15 15 15h15v356.718c0 37.198 30.263 67.461 67.461 67.461h187.131c37.198 0 67.461-30.263 67.461-67.461v-356.718h15c8.284 0 15-6.716 15-15s-6.715-15-14.999-15zm-229.34-27.821h106.74v27.821h-106.74zm184.34 414.539c0 20.656-16.805 37.461-37.461 37.461h-187.132c-20.656 0-37.461-16.805-37.461-37.461v-356.718h262.053v356.718z"/><path d="m181.449 380.826c8.284 0 15-6.716 15-15v-161.831c0-8.284-6.716-15-15-15s-15 6.716-15 15v161.831c0 8.284 6.716 15 15 15z"/><path d="m330.666 380.826c8.284 0 15-6.716 15-15v-161.831c0-8.284-6.716-15-15-15s-15 6.716-15 15v161.831c0 8.284 6.716 15 15 15z"/><path d="m256 430.826c8.284 0 15-6.716 15-15v-271.831c0-8.284-6.716-15-15-15s-15 6.716-15 15v271.831c0 8.284 6.716 15 15 15z"/></g></svg>