<svg id="Layer_1" enable-background="new 0 0 512 512" height="512" viewBox="0 0 512 512" width="512" xmlns="http://www.w3.org/2000/svg"><g><path d="m393.442 284.825c-.866-44.785-24.352-88.753-69.84-130.726-43.433-40.078-64.206-75.881-73.985-98.857-10.376-24.38-10.88-39.819-10.894-40.355-.062-8.233-6.754-14.887-15-14.887s-14.938 6.654-15 14.887c-.014.536-.518 15.976-10.894 40.355-17.717 41.628-50.013 76.735-73.985 98.856-46.359 42.777-69.865 87.626-69.865 133.3 0 93.598 76.146 169.744 169.744 169.744 4.177 0 8.368-.154 12.537-.458 21.465 33.256 58.85 55.316 101.291 55.316 66.428 0 120.471-54.043 120.471-120.471-.001-46.269-26.22-86.529-64.58-106.704zm-309.463 2.573c0-37.477 19.694-73.867 60.209-111.252 43.354-40.004 66.826-76.915 79.535-105.302 12.709 28.387 36.182 65.298 79.535 105.303 35.552 32.805 55.071 64.845 59.32 97.525-8.076-1.713-16.448-2.615-25.027-2.615-66.428 0-120.471 54.043-120.471 120.472 0 12.39 1.88 24.349 5.37 35.607-76.472-.685-138.471-63.106-138.471-139.738zm253.572 194.602c-49.886 0-90.471-40.585-90.471-90.471 0-49.887 40.585-90.472 90.471-90.472s90.471 40.585 90.471 90.472c-.001 49.886-40.585 90.471-90.471 90.471z"/><path d="m378.467 376.529h-81.833c-8.284 0-15 6.716-15 15s6.716 15 15 15h81.833c8.284 0 15-6.716 15-15s-6.716-15-15-15z"/></g></svg>