<svg id="Layer_1" enable-background="new 0 0 512 512" height="512" viewBox="0 0 512 512" width="512" xmlns="http://www.w3.org/2000/svg"><g><path d="m471.95 19.789h-431.9c-22.084 0-40.05 17.966-40.05 40.05v312.322c0 22.084 17.966 40.05 40.05 40.05h151.197v50h-35c-8.284 0-15 6.716-15 15s6.716 15 15 15h199.506c8.284 0 15-6.716 15-15s-6.716-15-15-15h-35v-50h151.197c22.084 0 40.05-17.966 40.05-40.05v-312.322c0-22.084-17.966-40.05-40.05-40.05zm-431.9 30h431.9c5.542 0 10.05 4.509 10.05 10.05v265.372h-452v-265.372c0-5.541 4.508-10.05 10.05-10.05zm250.703 412.422h-69.506v-50h69.506zm181.197-80h-431.9c-5.542 0-10.05-4.509-10.05-10.05v-16.95h452v16.95c0 5.541-4.508 10.05-10.05 10.05z"/><path d="m75 235.471h362c8.284 0 15-6.716 15-15v-125.47c0-8.284-6.716-15-15-15h-362c-8.284 0-15 6.716-15 15v125.47c0 8.284 6.716 15 15 15zm226.803-77.735 120.197-41.661v83.321zm46.117 47.735h-183.84l91.92-31.86zm-91.92-63.611-91.92-31.859h183.84zm-45.803 15.876-120.197 41.66v-83.321z"/><path d="m75 295.646h151c8.284 0 15-6.716 15-15s-6.716-15-15-15h-151c-8.284 0-15 6.716-15 15s6.716 15 15 15z"/><path d="m437 265.646h-151c-8.284 0-15 6.716-15 15s6.716 15 15 15h151c8.284 0 15-6.716 15-15s-6.716-15-15-15z"/></g></svg>