<svg id="Layer_1" enable-background="new 0 0 512 512" height="512" viewBox="0 0 512 512" width="512" xmlns="http://www.w3.org/2000/svg"><g><path d="m428.5 53.74h-105.195c-6.884-30.714-34.448-53.74-67.305-53.74s-60.421 23.026-67.305 53.74h-105.195c-31.706 0-57.5 25.717-57.5 57.328v343.604c0 31.611 25.794 57.328 57.5 57.328h295.763c3.968 0 7.774-1.572 10.585-4.372l91.738-91.366c2.826-2.814 4.415-6.639 4.415-10.628v-294.566c-.001-31.611-25.795-57.328-57.501-57.328zm-172.5-23.74c21.482 0 38.959 17.379 38.959 38.74 0 21.362-17.477 38.741-38.959 38.741s-38.959-17.379-38.959-38.741c0-21.361 17.477-38.74 38.959-38.74zm-200 424.673v-343.605c0-15.068 12.336-27.328 27.5-27.328h105.195c6.884 30.715 34.448 53.741 67.305 53.741s60.421-23.026 67.305-53.741h105.195c15.163 0 27.5 12.26 27.5 27.328v279.565h-76.738c-8.284 0-15 6.716-15 15v76.367h-280.762c-15.164 0-27.5-12.259-27.5-27.327zm378.682-34.039-40.42 40.257v-40.257z"/><path d="m121.959 197.439h268.081c8.284 0 15-6.716 15-15s-6.716-15-15-15h-268.081c-8.284 0-15 6.716-15 15s6.716 15 15 15z"/><path d="m121.959 257.439h238.081c8.284 0 15-6.716 15-15s-6.716-15-15-15h-238.081c-8.284 0-15 6.716-15 15s6.716 15 15 15z"/><path d="m121.959 317.439h268.081c8.284 0 15-6.716 15-15s-6.716-15-15-15h-268.081c-8.284 0-15 6.716-15 15s6.716 15 15 15z"/><path d="m300.041 347.439h-178.082c-8.284 0-15 6.716-15 15s6.716 15 15 15h178.081c8.284 0 15-6.716 15-15s-6.715-15-14.999-15z"/></g></svg>