<svg id="Layer_1" enable-background="new 0 0 512 512" height="512" viewBox="0 0 512 512" width="512" xmlns="http://www.w3.org/2000/svg"><g><path d="m359.212 125.002c-23.835-19.985-58.58-30.119-103.269-30.119-44.192 0-79.035 10.763-103.558 31.991-22.167 19.188-34.375 46.591-34.375 77.163l.001 170.026c0 76.059 61.877 137.937 137.934 137.937 76.054 0 137.929-61.878 137.929-137.937v-170.096c-.175-32.792-12.162-60.098-34.662-78.965zm-117.993 82.411c0-8.118 6.605-14.724 14.724-14.724s14.724 6.605 14.724 14.724v33c0 8.118-6.605 14.723-14.724 14.723s-14.724-6.605-14.724-14.723zm-93.208-3.376c0-45.778 34.422-74.518 92.933-78.64v39.881c-17.306 6.179-29.724 22.734-29.724 42.135v33c0 19.402 12.418 35.956 29.724 42.135v34.119c-45.213-2.829-92.605-19.868-92.932-78.768zm215.864 170.026c0 59.517-48.417 107.937-107.929 107.937-59.515 0-107.934-48.42-107.934-107.938v-61.233c1.5 1.434 3.054 2.825 4.662 4.173 23.835 19.985 58.58 30.119 103.269 30.119 44.192 0 79.035-10.764 103.558-31.991 1.505-1.302 2.963-2.643 4.375-4.019v62.952zm0-136.095c0 45.778-34.422 74.517-92.932 78.64v-34.061c17.305-6.179 29.724-22.733 29.724-42.135v-33c0-19.401-12.418-35.956-29.723-42.135v-39.94c45.212 2.829 92.603 19.864 92.932 78.761v33.87z"/><path d="m416.805 25.795c-5.858-5.859-15.355-5.857-21.213 0l-27.393 27.392c-5.858 5.857-5.858 15.355 0 21.213 2.929 2.93 6.767 4.394 10.606 4.394 3.838 0 7.678-1.465 10.606-4.394l27.393-27.392c5.859-5.857 5.859-15.355.001-21.213z"/><path d="m310.423 70.829c1.517.484 3.052.714 4.563.714 6.353 0 12.252-4.069 14.287-10.445l13.251-41.535c2.518-7.892-1.839-16.331-9.731-18.848-7.891-2.52-16.332 1.839-18.85 9.731l-13.252 41.534c-2.517 7.892 1.839 16.331 9.732 18.849z"/><path d="m133.195 78.796c3.838 0 7.678-1.465 10.606-4.394 5.858-5.857 5.858-15.355 0-21.213l-27.393-27.393c-5.859-5.858-15.355-5.858-21.213 0-5.858 5.857-5.858 15.355 0 21.213l27.393 27.393c2.93 2.93 6.767 4.394 10.607 4.394z"/><path d="m182.727 61.1c2.034 6.377 7.934 10.445 14.287 10.445 1.511 0 3.047-.229 4.563-.714 7.893-2.518 12.249-10.957 9.731-18.849l-13.251-41.535c-2.519-7.894-10.958-12.251-18.85-9.731-7.893 2.518-12.249 10.957-9.731 18.848z"/></g></svg>