<svg id="Layer_1" enable-background="new 0 0 512 512" height="512" viewBox="0 0 512 512" width="512" xmlns="http://www.w3.org/2000/svg"><g><path d="m483.274 331.663c-23.758-23.676-57.493-33.403-89.891-26.442l-48.773-48.608 107.641-142.964c2.867-3.809 3.754-8.755 2.387-13.322l-22.77-76.101c-1.513-5.056-5.57-8.944-10.686-10.24-5.116-1.298-10.535.191-14.273 3.915l-150.909 150.4-150.911-150.401c-3.737-3.725-9.158-5.213-14.273-3.915-5.115 1.296-9.173 5.185-10.686 10.24l-22.769 76.101c-1.367 4.568-.48 9.514 2.387 13.322l107.641 142.964-48.773 48.609c-32.395-6.961-66.135 2.767-89.89 26.442-18.524 18.462-28.726 43.012-28.726 69.127 0 26.116 10.202 50.666 28.727 69.128 19.103 19.038 44.196 28.558 69.289 28.558s50.186-9.52 69.29-28.558c24.332-24.25 33.904-59.094 26.068-91.819l62.626-31.208 62.627 31.207c-7.836 32.726 1.736 67.568 26.067 91.819 19.104 19.038 44.196 28.557 69.29 28.557 25.093 0 50.187-9.519 69.29-28.558 18.524-18.46 28.726-43.01 28.726-69.125 0-26.116-10.202-50.666-28.726-69.128zm-72.955-274.805 13.405 44.803-100.568 133.57-45.907-45.752zm-241.769 300.091c-6.972 3.475-10.124 11.706-7.257 18.948 9.944 25.114 3.991 53.679-15.166 72.771-26.529 26.439-69.695 26.439-96.225 0-12.834-12.791-19.902-29.794-19.902-47.878 0-18.083 7.068-35.086 19.904-47.877 18.032-17.972 44.357-24.368 68.706-16.695 5.325 1.678 11.142.26 15.098-3.682l51.901-51.726 35.234 46.797c.618.821 1.317 1.573 2.084 2.247zm293.547 91.719c-13.266 13.222-30.687 19.831-48.112 19.83-17.422-.002-34.85-6.611-48.112-19.829-19.157-19.093-25.109-47.657-15.166-72.771 2.868-7.242-.285-15.474-7.256-18.948l-100.769-50.213-154.407-205.076 13.405-44.803 276.613 275.678c3.955 3.939 9.768 5.359 15.098 3.682 24.348-7.676 50.673-1.277 68.706 16.694 12.835 12.792 19.903 29.795 19.903 47.879 0 18.083-7.068 35.086-19.903 47.877z"/><path d="m98.608 357.678c-23.669 0-42.925 19.256-42.925 42.925 0 23.668 19.256 42.924 42.925 42.924s42.925-19.256 42.925-42.924c0-23.67-19.256-42.925-42.925-42.925zm0 55.848c-7.127 0-12.925-5.798-12.925-12.924 0-7.127 5.798-12.925 12.925-12.925s12.925 5.798 12.925 12.925c0 7.126-5.798 12.924-12.925 12.924z"/><path d="m413.344 357.678c-23.669 0-42.925 19.256-42.925 42.925 0 23.668 19.256 42.924 42.925 42.924s42.925-19.256 42.925-42.924c0-23.67-19.256-42.925-42.925-42.925zm0 55.848c-7.127 0-12.925-5.798-12.925-12.924 0-7.127 5.798-12.925 12.925-12.925s12.925 5.798 12.925 12.925c0 7.126-5.798 12.924-12.925 12.924z"/></g></svg>