<svg id="Layer_1" enable-background="new 0 0 512 512" height="512" viewBox="0 0 512 512" width="512" xmlns="http://www.w3.org/2000/svg"><g><path d="m469.288 176.919h-44.218v-120.833c0-22.668-18.441-41.109-41.109-41.109h-253.466c-22.668 0-41.11 18.441-41.11 41.109v120.833h-46.673c-23.552 0-42.712 19.16-42.712 42.712v234.681c0 23.552 19.16 42.712 42.712 42.712h426.576c23.552 0 42.712-19.16 42.712-42.712v-234.681c0-23.552-19.16-42.712-42.712-42.712zm-308.545 177.518-130.743 91.923v-222.666zm95.257-30.302 203.231 142.889h-406.462zm98.181 32.358 127.819-127.82v217.687zm107.147-149.574-36.258 36.258v-36.258zm-330.833-161.942h253.466c6.126 0 11.109 4.983 11.109 11.109v217.091l-65.8 65.801-64.643-45.45c-5.176-3.639-12.078-3.639-17.254 0l-61.719 43.394-66.269-66.269v-214.567c0-6.126 4.984-11.109 11.11-11.109zm-41.11 195.676-33.735-33.734h33.734v33.734z"/><path d="m191.237 230.289c2.929 2.93 6.768 4.394 10.606 4.394s7.678-1.465 10.606-4.394l43.551-43.549 43.541 43.542c2.929 2.93 6.768 4.394 10.606 4.394s7.678-1.465 10.606-4.394c5.858-5.857 5.858-15.355 0-21.213l-43.541-43.542 43.55-43.549c5.858-5.857 5.858-15.355 0-21.213-5.856-5.858-15.354-5.858-21.213 0l-43.549 43.549-43.541-43.542c-5.857-5.858-15.355-5.858-21.213 0-5.858 5.857-5.858 15.355 0 21.213l43.541 43.542-43.55 43.549c-5.858 5.858-5.858 15.356 0 21.213z"/></g></svg>