<svg id="Layer_1" enable-background="new 0 0 512 512" height="512" viewBox="0 0 512 512" width="512" xmlns="http://www.w3.org/2000/svg"><g><path d="m469.288 176.919h-44.218v-120.833c0-22.668-18.441-41.109-41.109-41.109h-253.467c-22.668 0-41.109 18.441-41.109 41.109v120.833h-46.674c-23.551 0-42.711 19.16-42.711 42.712v234.681c0 23.552 19.16 42.712 42.711 42.712h426.577c23.552 0 42.712-19.16 42.712-42.712v-234.681c0-23.552-19.16-42.712-42.712-42.712zm-308.546 177.518-130.742 91.923v-222.666zm95.258-30.301 203.229 142.888h-406.459zm98.18 32.356 127.82-127.819v217.688zm107.148-149.573-36.258 36.258v-36.258zm-330.834-161.942h253.467c6.126 0 11.109 4.983 11.109 11.109v217.091l-65.801 65.801-64.643-45.449c-5.176-3.639-12.078-3.639-17.254 0l-61.72 43.394-66.268-66.269v-214.568c.001-6.126 4.984-11.109 11.11-11.109zm-41.109 195.677-33.735-33.735h33.734v33.735z"/><path d="m223.967 220.288c2.813 2.813 6.628 4.395 10.606 4.395h.001c3.978 0 7.794-1.58 10.606-4.394l82.913-82.913c5.858-5.857 5.858-15.355 0-21.213-5.857-5.857-15.355-5.857-21.213 0l-72.306 72.305-29.456-29.462c-5.855-5.857-15.354-5.861-21.213-.002-5.858 5.856-5.859 15.354-.002 21.213z"/></g></svg>